<svg width="18" height="18" viewBox="0 0 18 18" fill="none" xmlns="http://www.w3.org/2000/svg">
<g clip-path="url(#clip0_60_3744)">
<path fill-rule="evenodd" clip-rule="evenodd" d="M18 2.57143C18 1.15071 16.8493 0 15.4286 0H2.57143C1.15071 0 0 1.15071 0 2.57143V15.4286C0 16.8493 1.15071 18 2.57143 18H15.4286C16.8493 18 18 16.8493 18 15.4286V2.57143Z" fill="#00020C"/>
<path fill-rule="evenodd" clip-rule="evenodd" d="M7.48345 13.7535C7.48345 14.0774 7.48058 14.4308 7.48058 14.7547C7.48058 14.8312 7.44317 14.9049 7.38273 14.952C7.3223 14.9991 7.24173 15.0109 7.16978 14.9903C4.75252 14.1952 3 11.8749 3 9.13941C3 5.75022 5.68777 3 9 3C12.3122 3 15 5.75022 15 9.13941C15 11.872 13.2504 14.1893 10.8388 14.9844C10.7669 15.0079 10.6863 14.9932 10.6259 14.9461C10.5655 14.899 10.5281 14.8283 10.5281 14.7488C10.5223 14.0274 10.5194 13.1764 10.5194 12.7907C10.5194 12.4049 10.1511 12.0869 10.1511 12.0869C10.1511 12.0869 12.8705 11.7453 12.8705 9.3367C12.8705 7.80847 12.2777 7.29317 12.2777 7.29317C12.4043 6.74548 12.3871 6.2243 12.2489 5.72961C12.2288 5.65894 12.1597 5.61183 12.0878 5.61772C11.5094 5.67072 10.9799 5.88567 10.4993 6.2773C10.4993 6.2773 9.65036 6.03879 9.00288 6.03879C8.3554 6.03879 7.50647 6.2773 7.50647 6.2773C7.0259 5.88862 6.49353 5.67072 5.91799 5.61772C5.84604 5.61183 5.77698 5.65894 5.75683 5.72961C5.61871 6.2243 5.60144 6.74548 5.72518 7.29317C5.72518 7.29317 5.13525 7.80847 5.13525 9.3367C5.13525 11.7453 7.85468 12.0869 7.85468 12.0869C7.85468 12.0869 7.48633 12.4049 7.48633 12.7907V12.879C7.27914 12.9556 6.99712 13.0262 6.68058 13.0056C5.82014 12.9467 5.70504 11.9986 5.35108 11.8455C5.09209 11.7336 4.83885 11.7188 4.64604 11.7365C4.58849 11.7424 4.54245 11.7836 4.52806 11.8396C4.51367 11.8955 4.53381 11.9544 4.57986 11.9897C4.81295 12.1517 5.12374 12.3814 5.21007 12.5492C5.44317 12.9968 5.80288 13.7064 6.26619 13.783C6.83022 13.8772 7.23309 13.8213 7.48921 13.7477L7.48345 13.7535Z" fill="white"/>
</g>
<defs>
<clipPath id="clip0_60_3744">
<rect width="18" height="18" fill="white"/>
</clipPath>
</defs>
</svg>
