<svg width="18" height="18" viewBox="0 0 18 18" fill="none" xmlns="http://www.w3.org/2000/svg">
<g clip-path="url(#clip0_60_3749)">
<path d="M4.83191 11.1293L12.5854 12.7763L12.9102 11.2095L5.15666 9.5505L4.83191 11.1293ZM4.66016 13.1782H12.5847V14.7735H4.66016V13.1782ZM5.84891 7.37325L13.0279 10.7678L13.6932 9.30975L6.51041 5.90625L5.84891 7.37325ZM13.0287 10.7685L13.0279 10.7678L13.0272 10.7685H13.0287Z" fill="#FF9800"/>
<path d="M1.5 11.5718V18H15.744V11.5718H14.1593V16.3928H3.08475V11.5718H1.5Z" fill="#757575"/>
<path d="M7.83984 3.79725L13.9216 8.952L14.9311 7.7145L8.84934 2.55975L7.83984 3.79725ZM16.5001 6.44025L11.7736 0L10.5053 0.9645L15.2318 7.40475L16.5001 6.44025Z" fill="#FF9800"/>
</g>
<defs>
<clipPath id="clip0_60_3749">
<rect width="18" height="18" fill="white"/>
</clipPath>
</defs>
</svg>
