<svg xmlns="http://www.w3.org/2000/svg" viewBox="0 0 66 66" id="data-storage">
  <path fill="#7cb7ff" d="M28.16 42.47v7.4c0 2.16-5.85 3.91-13.08 3.91S2 52.03 2 49.87v-7.4c0 2.16 5.85 3.92 13.08 3.92s13.08-1.76 13.08-3.92z"></path>
  <path fill="#ddebfd" d="M28.16 35.07v7.4c0 2.16-5.85 3.91-13.08 3.91S2 44.63 2 42.48v-7.4C2 37.24 7.85 39 15.08 39s13.08-1.77 13.08-3.93z"></path>
  <path fill="#7cb7ff" d="M6.19 37.94C3.61 37.23 2 36.21 2 35.08v-7.4c0 2.16 5.85 3.92 13.08 3.92s13.08-1.76 13.08-3.92v7.4c0 2.16-5.85 3.91-13.08 3.91-1.76 0-3.43-.1-4.96-.29"></path>
  <path fill="#ddebfd" d="M28.16 20.27v7.4c0 2.16-5.85 3.91-13.08 3.91S2 29.84 2 27.68v-7.4c0 2.16 5.85 3.92 13.08 3.92s13.08-1.77 13.08-3.93z"></path>
  <path fill="#7cb7ff" d="M28.16 20.31c0 2.14-5.85 3.88-13.08 3.88C7.86 24.19 2 22.45 2 20.31c0-1.01 1.28-1.92 3.38-2.61 1.79 1.52 6.64 2.6 12.34 2.6 3.86 0 7.32-.5 9.71-1.28.47.4.73.84.73 1.29z"></path>
  <path fill="#fff" d="M27.43 19.02c-2.39.78-5.85 1.28-9.71 1.28-5.7 0-10.55-1.08-12.34-2.6 2.39-.79 5.85-1.29 9.7-1.29 5.72 0 10.57 1.09 12.35 2.61z"></path>
  <path fill="#fff" d="M27.43 19.02c-2.39.78-5.85 1.28-9.71 1.28-5.7 0-10.55-1.08-12.34-2.6 2.39-.79 5.85-1.29 9.7-1.29 5.72 0 10.57 1.09 12.35 2.61z" opacity=".3"></path>
  <path fill="#1576ed" d="M15.08 54.53c-6.87 0-13.83-1.6-13.83-4.66v-7.41c0-.41.34-.75.75-.75s.75.34.75.75c0 1.29 4.8 3.17 12.33 3.17 2.18 0 4.33-.17 6.22-.48.41-.06.79.21.86.62.07.41-.21.79-.62.86-6.28 1.04-15.28.41-18.8-1.93v5.17c0 1.29 4.8 3.16 12.33 3.16s12.33-1.87 12.33-3.16v-5.16c-.4.26-.88.51-1.43.74a.746.746 0 0 1-.98-.41c-.16-.38.02-.82.41-.98 1.48-.61 2.01-1.23 2.01-1.6 0-.41.34-.75.75-.75s.75.34.75.75v7.41c.01 3.06-6.95 4.66-13.83 4.66z"></path>
  <path fill="#1576ed" d="M25.7 45.51a.746.746 0 0 1-.28-1.44c1.48-.61 2.01-1.22 2.01-1.59v-5.17c-3.06 2.03-10.27 2.8-16.22 2.26a.753.753 0 1 1 .14-1.5c1.21.11 2.47.17 3.75.17 7.53 0 12.33-1.88 12.33-3.17 0-.41.34-.75.75-.75s.75.34.75.75v7.4c0 1.17-.99 2.17-2.93 2.98-.11.04-.21.06-.3.06z"></path>
  <path fill="#1576ed" d="M15.08 47.13c-6.87 0-13.83-1.6-13.83-4.66v-7.4c0-.41.34-.75.75-.75s.75.34.75.75c0 .56 1.11 1.44 3.6 2.14.4.11.63.53.52.92-.11.4-.52.63-.92.52-1.35-.38-2.42-.83-3.19-1.34v5.17c0 1.29 4.8 3.16 12.33 3.16 1.94 0 3.79-.13 5.52-.37.4-.07.79.23.85.64.06.41-.23.79-.64.85-1.8.24-3.73.37-5.74.37z"></path>
  <path fill="#1576ed" d="M15.08 39.73c-1.32 0-2.63-.06-3.88-.17a.75.75 0 1 1 .14-1.49c1.21.11 2.47.17 3.75.17 7.53 0 12.33-1.87 12.33-3.16v-5.15c-2.26 1.48-6.43 2.03-8.02 2.2-.4.04-.78-.26-.82-.67a.75.75 0 0 1 .67-.82c5.58-.57 8.18-2.1 8.18-2.96 0-.41.34-.75.75-.75s.75.34.75.75v7.4c-.01 3.06-6.97 4.65-13.85 4.65zm-9.7-1.28c-.08 0-.16-.01-.24-.04-3.21-1.06-3.89-2.4-3.89-3.33v-7.4c0-.41.34-.75.75-.75s.75.34.75.75c0 1.23 4.58 3.07 11.76 3.16.41.01.75.35.74.76-.01.41-.34.72-.76.74-4.56-.06-9.37-.84-11.74-2.41v5.15c0 .44.75 1.21 2.86 1.91.39.13.61.55.48.95a.76.76 0 0 1-.71.51z"></path>
  <path fill="#1576ed" d="M6.7 38.83c-.06 0-.12-.01-.18-.02-.49-.12-.95-.25-1.38-.4-.39-.13-.61-.55-.48-.95s.55-.6.95-.48c.4.13.82.25 1.27.36.4.1.65.51.55.91-.08.35-.39.58-.73.58zm6.7-6.53h-.03c-6.03-.23-12.12-1.75-12.12-4.62v-7.4c0-.41.34-.75.75-.75s.75.34.75.75c0 1.29 4.8 3.17 12.33 3.17s12.33-1.88 12.33-3.17c0-.41.34-.75.75-.75s.75.34.75.75v7.4c0 2.72-5.37 4.12-10.39 4.52-.4.03-.77-.27-.81-.69-.03-.41.28-.77.69-.81 5.88-.47 9.01-2.06 9.01-3.03V22.5c-4.83 3.2-19.83 3.2-24.66 0v5.17c0 1.11 3.8 2.86 10.67 3.13.41.02.74.36.72.78-.01.41-.34.72-.74.72z"></path>
  <path fill="#1576ed" d="M15.08 24.94c-6.87 0-13.83-1.59-13.83-4.64 0-3.77 10.66-5.27 18.55-4.39.41.05.71.42.66.83-.05.41-.42.71-.83.66-1.45-.16-2.98-.25-4.55-.25-7.53 0-12.33 1.86-12.33 3.14s4.8 3.14 12.33 3.14 12.33-1.86 12.33-3.14c0-.52-1.02-1.36-3.3-2.03a.744.744 0 0 1-.5-.93c.12-.4.53-.63.93-.5 2.86.85 4.37 2.05 4.37 3.47.01 3.05-6.95 4.64-13.83 4.64z"></path>
  <path fill="#ddebfd" d="M64 5.87v9.31c0 .69-.56 1.25-1.25 1.25H47.54c-.69 0-1.24-.56-1.24-1.25V2h6.89l2.68 2.62h6.88c.69 0 1.25.56 1.25 1.25z"></path>
  <path fill="#fff" d="M62.75 4.63H53.7v3.65a3.15 3.15 0 0 0 3.15 3.15H64V5.87c0-.69-.56-1.24-1.25-1.24z" opacity=".3"></path>
  <path fill="#1576ed" d="M62.75 17.18H55.8c-.41 0-.75-.34-.75-.75s.34-.75.75-.75h6.95c.28 0 .5-.22.5-.5V5.87c0-.28-.22-.5-.5-.5h-6.88a.76.76 0 0 1-.52-.21l-2.46-2.41h-5.83v12.43c0 .28.22.5.49.5h4.31c.41 0 .75.34.75.75s-.34.75-.75.75h-4.31c-1.1 0-1.99-.9-1.99-2V2.01c0-.41.34-.75.75-.75h6.89c.2 0 .38.08.52.21l2.46 2.41h6.57c1.1 0 2 .9 2 2v9.31c0 1.1-.9 1.99-2 1.99z"></path>
  <path fill="#1576ed" d="M58.76 9.18h-7.23c-.41 0-.75-.34-.75-.75s.34-.75.75-.75h7.23a.749.749 0 1 1 0 1.5zm0 4.14h-7.23c-.41 0-.75-.34-.75-.75s.34-.75.75-.75h7.23a.749.749 0 1 1 0 1.5z"></path>
  <path fill="#ddebfd" d="M64 29.66v9.31c0 .69-.56 1.25-1.25 1.25H47.54c-.69 0-1.24-.56-1.24-1.25V25.79h6.89l2.68 2.62h6.88c.69 0 1.25.56 1.25 1.25z"></path>
  <path fill="#fff" d="M62.75 28.41H53.7v3.65a3.15 3.15 0 0 0 3.15 3.15H64v-5.55c0-.7-.56-1.25-1.25-1.25z" opacity=".3"></path>
  <path fill="#1576ed" d="M62.75 40.96H60.4a.749.749 0 1 1 0-1.5h2.35c.28 0 .5-.22.5-.5v-9.31c0-.28-.22-.5-.5-.5h-6.88a.76.76 0 0 1-.52-.21l-2.46-2.41h-5.83v12.43c0 .28.22.5.49.5h8.65c.41 0 .75.34.75.75s-.34.75-.75.75h-8.65c-1.1 0-1.99-.9-1.99-2V25.78c0-.41.34-.75.75-.75h6.89c.2 0 .38.08.52.21l2.46 2.41h6.57c1.1 0 2 .9 2 2v9.31a2 2 0 0 1-2 2z"></path>
  <path fill="#1576ed" d="M58.76 32.96h-7.23c-.41 0-.75-.34-.75-.75s.34-.75.75-.75h7.23a.749.749 0 1 1 0 1.5zm0 4.14h-7.23c-.41 0-.75-.34-.75-.75s.34-.75.75-.75h7.23a.749.749 0 1 1 0 1.5z"></path>
  <path fill="#ddebfd" d="M64 53.44v9.31c0 .69-.56 1.25-1.25 1.25H47.54c-.69 0-1.24-.56-1.24-1.25V49.57h6.89l2.68 2.62h6.88c.69 0 1.25.56 1.25 1.25z"></path>
  <path fill="#fff" d="M62.75 52.19H53.7v3.65a3.15 3.15 0 0 0 3.15 3.15H64v-5.55c0-.7-.56-1.25-1.25-1.25z" opacity=".3"></path>
  <path fill="#1576ed" d="M62.75 64.74H47.54c-1.1 0-1.99-.9-1.99-2V49.57c0-.41.34-.75.75-.75h6.89c.2 0 .38.08.52.21l2.46 2.41h6.57c1.1 0 2 .9 2 2v3.34c0 .41-.34.75-.75.75s-.75-.34-.75-.75v-3.34c0-.28-.22-.5-.5-.5h-6.88a.76.76 0 0 1-.52-.21l-2.46-2.41h-5.83v12.43c0 .28.22.5.49.5h15.21c.28 0 .5-.22.5-.5v-2.37c0-.41.34-.75.75-.75s.75.34.75.75v2.37c0 1.1-.9 1.99-2 1.99z"></path>
  <path fill="#1576ed" d="M58.76 56.74h-7.23c-.41 0-.75-.34-.75-.75s.34-.75.75-.75h7.23a.749.749 0 1 1 0 1.5zm0 4.14h-7.23c-.41 0-.75-.34-.75-.75s.34-.75.75-.75h7.23a.749.749 0 1 1 0 1.5zM46.29 34.57H28.8c-.41 0-.75-.34-.75-.75s.34-.75.75-.75h17.49a.749.749 0 1 1 0 1.5zM46.29 58.85H35.25c-.41 0-.75-.34-.75-.75v-7.81a.749.749 0 1 1 1.5 0v7.06h10.29a.749.749 0 1 1 0 1.5z"></path>
  <path fill="#1576ed" d="M35.25 45.17c-.41 0-.75-.34-.75-.75V27.67c0-.41.34-.75.75-.75s.75.34.75.75v16.74c0 .42-.34.76-.75.76zM35.25 23.27c-.41 0-.75-.34-.75-.75V9.53c0-.41.34-.75.75-.75h11.04c.41 0 .75.34.75.75s-.34.75-.75.75H36v12.24c0 .42-.34.75-.75.75z"></path>
</svg>
