<svg xmlns="http://www.w3.org/2000/svg" viewBox="0 0 100 100" id="shirt">
  <path fill="#a0c8ff" d="M66,2c0,4.42-7.16,8-16,8S34,6.42,34,2L18,10,2,26l8,24L22,38V98H78V38L90,50l8-24L82,10,66,2Z"></path>
  <path fill="#dfedff" d="M4 32L22 14 36.88 6.57C35.08 5.27 34 3.7 34 2L18 10 2 26zM54 14c8.84 0 16-3.58 16-8L66 2c0 4.42-7.16 8-16 8A25.33 25.33 0 0138.28 7.43C39.63 11.16 46.15 14 54 14z"></path>
  <rect width="11.31" x="80.35" y="46" fill="#dfedff"></rect>
  <path fill="#2f67f3" d="M78,100H22a2,2,0,0,1-2-2V42.84l-8.59,8.57a2,2,0,0,1-3.31-.78l-8-24a2,2,0,0,1,.49-2.05l16-16a2.35,2.35,0,0,1,.52-.37l16-8A2,2,0,0,1,36,2c0,2.83,6,6,14,6S64,4.83,64,2A2,2,0,0,1,65,.3,2,2,0,0,1,66.9.21l16,8a1.9,1.9,0,0,1,.52.37l16,16a2,2,0,0,1,.49,2.05l-8,24A2,2,0,0,1,90.46,52a2,2,0,0,1-1.87-.54L80,42.83V98A2,2,0,0,1,78,100ZM24,96H76V38a2,2,0,0,1,3.41-1.42l9.71,9.72,6.6-19.76L80.82,11.64,67.31,4.89C65.18,9.09,58.45,12,50,12S34.84,9.09,32.72,4.89L19.2,11.64,4.31,26.54,10.89,46.3l9.71-9.7A2,2,0,0,1,24,38Z"></path>
  <path fill="#2f67f3" d="M66 36H34a2 2 0 110-4H66a2 2 0 010 4zM66 52H34a2 2 0 110-4H66a2 2 0 010 4z"></path>
</svg>
