<svg width="14" height="12" viewBox="0 0 14 12" fill="none" xmlns="http://www.w3.org/2000/svg">
<path d="M8.14445 0.333005C7.6826 0.11375 7.17774 0 6.66648 0C6.15522 0 5.65036 0.11375 5.18851 0.333005L0.727785 2.42417C0.0101974 2.76016 -0.176199 3.70895 0.166195 4.36493V7.66648C0.166195 7.79908 0.218872 7.92626 0.312639 8.02002C0.406405 8.11379 0.53358 8.16647 0.666186 8.16647C0.798792 8.16647 0.925967 8.11379 1.01973 8.02002C1.1135 7.92626 1.16618 7.79908 1.16618 7.66648V5.11452L5.18851 7.00009C5.65036 7.21934 6.15522 7.33309 6.66648 7.33309C7.17774 7.33309 7.6826 7.21934 8.14445 7.00009L12.6052 4.90892C13.5756 4.45453 13.5756 2.87936 12.6052 2.42497L8.14445 0.333005Z" fill="#916CE7"/>
<path d="M1.99805 6.60974V9.0833C1.99805 9.75529 2.33404 10.3849 2.92123 10.7105C3.90041 11.2529 5.46759 12 6.66516 12C7.86194 12 9.42912 11.2529 10.4075 10.7105C10.9955 10.3849 11.3315 9.75529 11.3315 9.0833V6.60974L8.56753 7.90572C7.97274 8.18734 7.32286 8.33343 6.66476 8.33343C6.00667 8.33343 5.35679 8.18734 4.762 7.90572L1.99805 6.60974Z" fill="#916CE7"/>
</svg>
