<svg width="14" height="14" viewBox="0 0 14 14" fill="none" xmlns="http://www.w3.org/2000/svg">
<g clip-path="url(#clip0_60_3724)">
<path d="M12.2703 1.55554H1.53698C0.799062 1.55554 0.202021 2.15929 0.202021 2.89721L0.195312 10.9472C0.195312 11.6851 0.799062 12.2889 1.53698 12.2889H12.2703C13.0082 12.2889 13.612 11.6851 13.612 10.9472V2.89721C13.612 2.15929 13.0082 1.55554 12.2703 1.55554ZM12.002 4.40658L7.25919 7.37167C7.04452 7.50583 6.76277 7.50583 6.5481 7.37167L1.80531 4.40658C1.6376 4.29925 1.53698 4.11813 1.53698 3.92358C1.53698 3.47413 2.02669 3.20579 2.40906 3.44058L6.90364 6.25138L11.3982 3.44058C11.7806 3.20579 12.2703 3.47413 12.2703 3.92358C12.2703 4.11813 12.1697 4.29925 12.002 4.40658Z" fill="#916CE7"/>
</g>
<defs>
<clipPath id="clip0_60_3724">
<rect width="14" height="14" fill="white"/>
</clipPath>
</defs>
</svg>
