<svg width="30" height="32" viewBox="0 0 30 32" fill="none" xmlns="http://www.w3.org/2000/svg">
<g clip-path="url(#clip0_314_1373)">
<path d="M15.8555 -0.0699463C12.8066 -0.0661958 9.88355 1.21808 7.72765 3.50114C5.57175 5.7842 4.35901 8.87962 4.35547 12.1084C4.35547 22.5294 14.81 30.3997 15.255 30.7292C15.4309 30.8599 15.6406 30.9301 15.8555 30.9301C16.0704 30.9301 16.2801 30.8599 16.456 30.7292C16.9009 30.3997 27.3555 22.5277 27.3555 12.1084C27.3519 8.87962 26.1392 5.7842 23.9833 3.50114C21.8274 1.21808 18.9044 -0.0661958 15.8555 -0.0699463ZM15.8555 7.67988C16.9646 7.67988 18.0282 8.14645 18.8125 8.97695C19.5967 9.80745 20.0373 10.9338 20.0373 12.1084C20.0373 13.2829 19.5967 14.4093 18.8125 15.2398C18.0282 16.0703 16.9646 16.5368 15.8555 16.5368C14.7464 16.5368 13.6827 16.0703 12.8985 15.2398C12.1142 14.4093 11.6737 13.2829 11.6737 12.1084C11.6737 10.9338 12.1142 9.80745 12.8985 8.97695C13.6827 8.14645 14.7464 7.67988 15.8555 7.67988Z" fill="#916CE7"/>
</g>
<defs>
<clipPath id="clip0_314_1373">
<rect width="29.4347" height="31.07" fill="white"/>
</clipPath>
</defs>
</svg>
