<svg width="14" height="14" viewBox="0 0 14 14" fill="none" xmlns="http://www.w3.org/2000/svg">
<g clip-path="url(#clip0_60_3712)">
<path d="M10.4981 13.4808C7.85213 13.4774 5.31554 12.4247 3.44458 10.5538C1.57362 8.68282 0.521008 6.14624 0.517578 3.5003C0.517578 2.70964 0.831666 1.95137 1.39075 1.39229C1.94983 0.833205 2.7081 0.519117 3.49876 0.519117C3.66619 0.517842 3.83333 0.533037 3.99779 0.564483C4.15677 0.588009 4.31306 0.627081 4.46441 0.681138C4.57085 0.718487 4.66571 0.782973 4.73959 0.868222C4.81347 0.95347 4.86382 1.05653 4.88566 1.1672L5.77353 5.0557C5.79747 5.16125 5.79458 5.27111 5.76515 5.37526C5.73572 5.47941 5.68067 5.57453 5.60503 5.65194C5.52078 5.74267 5.5143 5.74915 4.71716 6.16392C5.35552 7.56434 6.47554 8.68896 7.87332 9.33305C8.29458 8.52943 8.30106 8.52295 8.39179 8.4387C8.4692 8.36306 8.56432 8.30801 8.66847 8.27858C8.77262 8.24914 8.88248 8.24626 8.98803 8.27019L12.8765 9.15807C12.9837 9.18292 13.0827 9.23463 13.1643 9.30833C13.246 9.38203 13.3075 9.47528 13.3431 9.57932C13.3978 9.73315 13.439 9.89145 13.4663 10.0524C13.4924 10.2153 13.5054 10.38 13.5052 10.545C13.4932 11.3322 13.1703 12.0828 12.6069 12.6329C12.0435 13.1829 11.2854 13.4877 10.4981 13.4808Z" fill="#916CE7"/>
</g>
<defs>
<clipPath id="clip0_60_3712">
<rect width="14" height="14" fill="white"/>
</clipPath>
</defs>
</svg>
