<svg width="33" height="33" viewBox="0 0 33 33" fill="none" xmlns="http://www.w3.org/2000/svg">
<g clip-path="url(#clip0_64_1390)">
<path d="M25.1856 16.0734L20.6159 11.5037C20.4737 11.3616 20.2223 11.3616 20.0802 11.5037L19.0895 12.4944C18.9415 12.6424 18.9415 12.8822 19.0895 13.0302L22.4008 16.3412L19.0897 19.6527C18.9417 19.8007 18.9417 20.0405 19.0897 20.1885L20.0804 21.1792C20.1515 21.2503 20.2479 21.2904 20.3483 21.2904C20.4485 21.2904 20.5452 21.2503 20.6162 21.1792L25.1856 16.6096C25.3336 16.4615 25.3336 16.2214 25.1856 16.0734Z" fill="#F2F2F2"/>
<path d="M13.5975 19.6527L10.2868 16.3416L13.5981 13.0306C13.6692 12.9596 13.7091 12.8633 13.7091 12.7627C13.7091 12.6623 13.6694 12.5659 13.5981 12.4948L12.6074 11.5041C12.5363 11.433 12.4399 11.3931 12.3395 11.3931C12.2391 11.3931 12.1426 11.433 12.0716 11.5041L7.50161 16.0735C7.35363 16.2215 7.35363 16.4613 7.50161 16.6095L12.0714 21.1791C12.1424 21.2501 12.2389 21.2903 12.3393 21.2903C12.4397 21.2903 12.5361 21.2501 12.6072 21.1791L13.5979 20.1884C13.7459 20.0406 13.7459 19.8007 13.5975 19.6527Z" fill="#F2F2F2"/>
<path d="M18.9425 9.96647C18.8944 9.87818 18.8133 9.81262 18.717 9.7842L17.9139 9.54718C17.7134 9.48769 17.5024 9.60269 17.4432 9.80334L13.7147 22.43C13.6863 22.5265 13.6973 22.6301 13.7452 22.7182C13.7931 22.8067 13.8744 22.8721 13.9707 22.9007L14.7738 23.1377C14.8096 23.1483 14.8458 23.1534 14.8813 23.1534C15.0448 23.1534 15.1958 23.0466 15.2445 22.8816L18.973 10.2547C19.0014 10.1582 18.9906 10.0546 18.9425 9.96647Z" fill="#F2F2F2"/>
</g>
<defs>
<clipPath id="clip0_64_1390">
<rect width="17.9055" height="17.9055" fill="white" transform="translate(7.39062 7.38965)"/>
</clipPath>
</defs>
</svg>
