<svg width="33" height="33" viewBox="0 0 33 33" fill="none" xmlns="http://www.w3.org/2000/svg">
<g clip-path="url(#clip0_64_1407)">
<path d="M23.4384 19.4374H21.2548C21.1576 19.4374 21.0621 19.4119 20.9778 19.3633C20.8936 19.3148 20.8237 19.2449 20.775 19.1607C20.7263 19.0766 20.7006 18.9811 20.7005 18.8839C20.7004 18.7866 20.7259 18.6911 20.7744 18.6068C21.1355 17.9806 21.2633 17.2467 21.135 16.5352C21.0067 15.8237 20.6306 15.1807 20.0735 14.72C19.3577 14.1271 18.4495 13.8961 17.517 14.0728C16.2919 14.3033 15.3212 15.289 15.1012 16.5252C14.9695 17.2398 15.0972 17.978 15.4614 18.6068C15.51 18.6911 15.5356 18.7867 15.5356 18.884C15.5356 18.9813 15.5099 19.0769 15.4612 19.1612C15.4126 19.2454 15.3425 19.3153 15.2582 19.3639C15.1739 19.4125 15.0783 19.4381 14.981 19.438H9.07452C8.77503 19.4377 8.4879 19.3185 8.27618 19.1067C8.06446 18.8949 7.94546 18.6077 7.94531 18.3082V9.07281C7.94561 8.77342 8.06467 8.48637 8.27637 8.27467C8.48808 8.06296 8.77513 7.9439 9.07452 7.9436H23.4384C23.7378 7.9439 24.0249 8.06296 24.2366 8.27467C24.4483 8.48637 24.5674 8.77342 24.5677 9.07281V18.3087C24.5672 18.608 24.4481 18.895 24.2364 19.1065C24.0247 19.3181 23.7377 19.4371 23.4384 19.4374ZM22.0992 18.3292H23.4384L23.4595 9.07281L23.4384 9.05176H9.07452L9.05347 18.3087L14.1333 18.3265C13.9309 17.6814 13.8887 16.9968 14.0103 16.3318C14.31 14.6441 15.637 13.2988 17.312 12.9841C18.5565 12.7491 19.8209 13.0716 20.7805 13.8673C21.4194 14.3953 21.8862 15.102 22.1211 15.8969C22.3561 16.6918 22.3484 17.5387 22.0992 18.3292Z" fill="#F2F2F2"/>
<path d="M18.1158 21.256C15.8136 21.256 13.9414 19.3832 13.9414 17.0816C13.9414 14.7799 15.8142 12.9077 18.1153 12.9077C20.4169 12.9077 22.2897 14.7799 22.2897 17.0816C22.2897 19.3832 20.4169 21.256 18.1153 21.256H18.1158ZM18.1158 14.0159C17.303 14.0168 16.5236 14.34 15.9488 14.9147C15.374 15.4895 15.0506 16.2687 15.0496 17.0816C15.0504 17.8944 15.3737 18.6738 15.9484 19.2486C16.5232 19.8234 17.3024 20.1468 18.1153 20.1479C18.9282 20.147 19.7076 19.8236 20.2825 19.2488C20.8573 18.6739 21.1807 17.8945 21.1815 17.0816C21.1805 16.2687 20.8571 15.4895 20.2823 14.9147C19.7075 14.34 18.9281 14.0168 18.1153 14.0159H18.1158Z" fill="#F2F2F2"/>
<path d="M18.1154 18.7443C19.0334 18.7443 19.7776 18.0001 19.7776 17.082C19.7776 16.164 19.0334 15.4198 18.1154 15.4198C17.1973 15.4198 16.4531 16.164 16.4531 17.082C16.4531 18.0001 17.1973 18.7443 18.1154 18.7443Z" fill="#F2F2F2"/>
<path d="M21.6439 24.566C21.5711 24.566 21.4991 24.5517 21.4319 24.5238C21.3646 24.496 21.3036 24.4551 21.2522 24.4036L17.9316 21.0831C17.8561 21.0075 17.804 20.9117 17.7817 20.8072C17.7594 20.7027 17.7678 20.594 17.8059 20.4941C17.8439 20.3943 17.91 20.3076 17.9962 20.2445C18.0824 20.1814 18.1851 20.1445 18.2917 20.1384C18.8004 20.1105 19.294 19.9557 19.7276 19.6882C20.1611 19.4207 20.5209 19.049 20.774 18.6069C20.8164 18.5332 20.8753 18.4702 20.946 18.4229C21.0166 18.3756 21.0973 18.3451 21.1816 18.334C21.2659 18.3229 21.3517 18.3313 21.4323 18.3586C21.5128 18.3859 21.586 18.4315 21.6461 18.4916L24.4049 21.2509C24.4823 21.3284 24.5351 21.4271 24.5565 21.5346C24.5778 21.6421 24.5668 21.7535 24.5249 21.8547C24.483 21.9559 24.412 22.0425 24.3209 22.1033C24.2298 22.1642 24.1227 22.1967 24.0131 22.1968H22.198V24.0119C22.198 24.1589 22.1396 24.2998 22.0357 24.4037C21.9318 24.5076 21.7908 24.566 21.6439 24.566ZM19.4497 21.0343L21.0898 22.6744V21.6427C21.0898 21.4957 21.1482 21.3548 21.2521 21.2509C21.356 21.147 21.4969 21.0886 21.6439 21.0886H22.6756L21.3297 19.7422C20.8362 20.3401 20.1849 20.7878 19.4497 21.0343Z" fill="#F2F2F2"/>
<path d="M14.5895 24.566C14.4426 24.566 14.3016 24.5076 14.1977 24.4037C14.0938 24.2998 14.0354 24.1589 14.0354 24.0119V22.1968H12.2197C12.1103 22.1965 12.0033 22.1638 11.9124 22.1029C11.8215 22.0419 11.7506 21.9555 11.7088 21.8544C11.6669 21.7532 11.6558 21.642 11.6771 21.5346C11.6983 21.4272 11.7508 21.3285 11.828 21.2509L14.5873 18.4916C14.6474 18.4315 14.7206 18.3859 14.8012 18.3586C14.8817 18.3313 14.9675 18.3229 15.0518 18.334C15.1361 18.3451 15.2168 18.3756 15.2875 18.4229C15.3581 18.4702 15.417 18.5332 15.4594 18.6069C15.7125 19.0488 16.0721 19.4204 16.5054 19.6878C16.9388 19.9553 17.4321 20.1102 17.9406 20.1384C18.0475 20.1439 18.1505 20.1805 18.2371 20.2435C18.3237 20.3065 18.3902 20.3933 18.4284 20.4933C18.4666 20.5934 18.4749 20.7024 18.4523 20.807C18.4298 20.9117 18.3773 21.0076 18.3013 21.0831L14.9812 24.4036C14.9298 24.4551 14.8688 24.496 14.8015 24.5238C14.7343 24.5517 14.6623 24.566 14.5895 24.566ZM13.5578 21.0886H14.5895C14.7365 21.0886 14.8774 21.147 14.9813 21.2509C15.0852 21.3548 15.1436 21.4957 15.1436 21.6427V22.6744L16.7837 21.0343C16.0485 20.7879 15.397 20.3405 14.9031 19.7427L13.5578 21.0886ZM16.2545 11.1207H10.5658C10.4188 11.1207 10.2779 11.0624 10.174 10.9584C10.0701 10.8545 10.0117 10.7136 10.0117 10.5667C10.0117 10.4197 10.0701 10.2788 10.174 10.1749C10.2779 10.0709 10.4188 10.0126 10.5658 10.0126H16.2545C16.4015 10.0126 16.5424 10.0709 16.6463 10.1749C16.7502 10.2788 16.8086 10.4197 16.8086 10.5667C16.8086 10.7136 16.7502 10.8545 16.6463 10.9584C16.5424 11.0624 16.4015 11.1207 16.2545 11.1207ZM14.0244 13.1808H10.5658C10.4188 13.1808 10.2779 13.1224 10.174 13.0185C10.0701 12.9146 10.0117 12.7737 10.0117 12.6267C10.0117 12.4798 10.0701 12.3388 10.174 12.2349C10.2779 12.131 10.4188 12.0726 10.5658 12.0726H14.0244C14.1713 12.0726 14.3122 12.131 14.4161 12.2349C14.5201 12.3388 14.5784 12.4798 14.5784 12.6267C14.5784 12.7737 14.5201 12.9146 14.4161 13.0185C14.3122 13.1224 14.1713 13.1808 14.0244 13.1808Z" fill="#F2F2F2"/>
</g>
<defs>
<clipPath id="clip0_64_1407">
<rect width="17.7305" height="17.7305" fill="white" transform="translate(7.39062 7.38965)"/>
</clipPath>
</defs>
</svg>
