<svg width="33" height="33" viewBox="0 0 33 33" fill="none" xmlns="http://www.w3.org/2000/svg">
<path d="M16.2577 7.38971L23.9373 11.8235V20.6911L16.2577 25.125L8.57812 20.6911V11.8235L16.2577 7.38971Z" fill="white"/>
<path d="M20.6915 16.2573C20.6915 18.7061 18.7064 20.6911 16.2577 20.6911C13.809 20.6911 11.8239 18.7061 11.8239 16.2573C11.8239 13.8086 13.809 11.8235 16.2577 11.8235C18.7064 11.8235 20.6915 13.8086 20.6915 16.2573Z" fill="#808080"/>
<path d="M19.9526 16.2573C19.9526 18.2979 18.2983 19.9522 16.2577 19.9522C14.2171 19.9522 12.5629 18.2979 12.5629 16.2573C12.5629 14.2167 14.2171 12.5625 16.2577 12.5625C18.2983 12.5625 19.9526 14.2167 19.9526 16.2573Z" fill="white"/>
</svg>
