<svg width="33" height="33" viewBox="0 0 33 33" fill="none" xmlns="http://www.w3.org/2000/svg">
<path fill-rule="evenodd" clip-rule="evenodd" d="M16.254 18.0295C19.6087 18.0295 22.4211 19.9918 23.1532 23.3475H9.35474C10.0869 19.9918 12.8992 18.0295 16.254 18.0295ZM12.7086 12.7115C12.7086 10.7562 14.2987 9.16615 16.254 9.16615C18.2092 9.16615 19.7993 10.7562 19.7993 12.7115C19.7993 14.6667 18.2092 16.2568 16.254 16.2568C14.2987 16.2568 12.7086 14.6667 12.7086 12.7115ZM19.5848 16.8533C20.2054 16.3561 20.7062 15.7257 21.0502 15.0088C21.3941 14.2918 21.5725 13.5067 21.572 12.7115C21.5726 11.8123 21.3453 10.9278 20.9112 10.1403C20.4771 9.35291 19.8505 8.68832 19.0898 8.20884C18.3292 7.72936 17.4594 7.45061 16.5618 7.39857C15.6642 7.34652 14.768 7.52295 13.957 7.9113C13.1461 8.29966 12.4468 8.88729 11.9247 9.61927C11.4025 10.3512 11.0744 11.2036 10.9711 12.0968C10.8679 12.99 10.9928 13.8948 11.3341 14.7266C11.6755 15.5584 12.2222 16.2901 12.9231 16.8533C9.68003 18.072 7.39062 21.0829 7.39062 25.1202H25.1173C25.1173 21.0829 22.8279 18.072 19.5848 16.8533Z" fill="#916CE7"/>
</svg>
