<svg width="33" height="33" viewBox="0 0 33 33" fill="none" xmlns="http://www.w3.org/2000/svg">
<g clip-path="url(#clip0_64_1399)">
<path d="M16.3434 17.8345C16.2688 17.8345 16.1942 17.8345 16.1195 17.7599L7.91287 14.7757C7.61444 14.7011 7.39062 14.4027 7.39062 14.1042C7.39062 13.8058 7.61444 13.5074 7.91287 13.4328L16.1195 10.4485C16.2688 10.3739 16.4926 10.3739 16.6418 10.4485L24.8485 13.4328C25.0723 13.5074 25.2961 13.8058 25.2961 14.1042C25.2961 14.4027 25.0723 14.7011 24.7739 14.7757L16.5672 17.7599C16.4926 17.8345 16.418 17.8345 16.3434 17.8345ZM10.3003 14.1042L16.3434 16.2678L22.3865 14.1042L16.3434 11.9407L10.3003 14.1042Z" fill="#F2F2F2"/>
<path d="M21.5661 22.3109H16.3437C15.8961 22.3109 15.5977 22.0125 15.5977 21.5648C15.5977 21.1172 15.8961 20.8188 16.3437 20.8188H20.8201C20.7455 18.879 20.2978 17.2377 19.5518 16.044C19.328 15.6709 19.4772 15.2233 19.7756 14.9995C20.1486 14.7757 20.5963 14.9249 20.8201 15.2233C21.79 16.79 22.3122 18.9536 22.3122 21.4902C22.3122 22.0125 22.0138 22.3109 21.5661 22.3109Z" fill="#F2F2F2"/>
<path d="M16.3435 22.3109H11.1211C10.6734 22.3109 10.375 22.0125 10.375 21.5648C10.375 19.0282 10.8972 16.8646 11.8671 15.2979C12.0909 14.9249 12.5386 14.8503 12.9116 15.0741C13.2846 15.2979 13.3592 15.7456 13.1354 16.1186C12.3894 17.3123 11.9417 18.9536 11.8671 20.8934H16.3435C16.7911 20.8934 17.0896 21.1918 17.0896 21.6394C17.0896 22.0871 16.7911 22.3109 16.3435 22.3109ZM23.8041 22.3109C23.3565 22.3109 23.058 22.0125 23.058 21.5648V14.1042C23.058 13.6566 23.3565 13.3582 23.8041 13.3582C24.2517 13.3582 24.5502 13.6566 24.5502 14.1042V21.5648C24.5502 22.0125 24.2517 22.3109 23.8041 22.3109Z" fill="#F2F2F2"/>
</g>
<defs>
<clipPath id="clip0_64_1399">
<rect width="17.9055" height="17.9055" fill="white" transform="translate(7.39062 7.38965)"/>
</clipPath>
</defs>
</svg>
