<svg width="33" height="33" viewBox="0 0 33 33" fill="none" xmlns="http://www.w3.org/2000/svg">
<path d="M27.096 23.7093C27.6179 23.7095 28.1197 23.9106 28.4974 24.2707C28.8752 24.6309 29.0998 25.1226 29.1249 25.6438C29.15 26.1651 28.9736 26.6761 28.6322 27.0709C28.2908 27.4656 27.8106 27.7139 27.2911 27.7643L27.096 27.7737H5.41895C4.89705 27.7735 4.39525 27.5724 4.01754 27.2123C3.63983 26.8521 3.41515 26.3605 3.39007 25.8392C3.36499 25.3179 3.54143 24.8069 3.88282 24.4122C4.22421 24.0174 4.70439 23.7691 5.22385 23.7188L5.41895 23.7093H27.096ZM27.096 14.2256C27.635 14.2256 28.1519 14.4397 28.533 14.8208C28.9142 15.2019 29.1283 15.7188 29.1283 16.2578C29.1283 16.7968 28.9142 17.3137 28.533 17.6948C28.1519 18.0759 27.635 18.29 27.096 18.29H5.41895C4.87997 18.29 4.36306 18.0759 3.98194 17.6948C3.60083 17.3137 3.38672 16.7968 3.38672 16.2578C3.38672 15.7188 3.60083 15.2019 3.98194 14.8208C4.36306 14.4397 4.87997 14.2256 5.41895 14.2256H27.096ZM27.096 4.74182C27.635 4.74182 28.1519 4.95593 28.533 5.33705C28.9142 5.71816 29.1283 6.23507 29.1283 6.77405C29.1283 7.31303 28.9142 7.82993 28.533 8.21105C28.1519 8.59217 27.635 8.80628 27.096 8.80628H5.41895C4.87997 8.80628 4.36306 8.59217 3.98194 8.21105C3.60083 7.82993 3.38672 7.31303 3.38672 6.77405C3.38672 6.23507 3.60083 5.71816 3.98194 5.33705C4.36306 4.95593 4.87997 4.74182 5.41895 4.74182H27.096Z" fill="#F2F2F2"/>
</svg>
