<svg width="35" height="33" viewBox="0 0 35 33" fill="none" xmlns="http://www.w3.org/2000/svg">
<path d="M20.0255 22.9427V21.9707H18.0814C17.5468 21.9707 17.0893 21.7805 16.7089 21.4001C16.3284 21.0196 16.1379 20.5618 16.1373 20.0265V12.25H14.1931V13.2221C14.1931 13.7567 14.0029 14.2145 13.6225 14.5956C13.2421 14.9766 12.7843 15.1668 12.249 15.1662H9.33281C8.79817 15.1662 8.34065 14.976 7.96025 14.5956C7.57985 14.2152 7.38932 13.7573 7.38867 13.2221V9.33378C7.38867 8.79915 7.5792 8.34163 7.96025 7.96122C8.3413 7.58082 8.79882 7.3903 9.33281 7.38965H12.249C12.7836 7.38965 13.2415 7.58017 13.6225 7.96122C14.0036 8.34227 14.1938 8.79979 14.1931 9.33378V10.3058H20.0255V9.33378C20.0255 8.79915 20.2161 8.34163 20.5971 7.96122C20.9782 7.58082 21.4357 7.3903 21.9697 7.38965H24.8859C25.4205 7.38965 25.8784 7.58017 26.2594 7.96122C26.6405 8.34227 26.8307 8.79979 26.83 9.33378V13.2221C26.83 13.7567 26.6398 14.2145 26.2594 14.5956C25.879 14.9766 25.4212 15.1668 24.8859 15.1662H21.9697C21.435 15.1662 20.9775 14.976 20.5971 14.5956C20.2167 14.2152 20.0262 13.7573 20.0255 13.2221V12.25H18.0814V20.0265H20.0255V19.0545C20.0255 18.5198 20.2161 18.0623 20.5971 17.6819C20.9782 17.3015 21.4357 17.111 21.9697 17.1103H24.8859C25.4205 17.1103 25.8784 17.3008 26.2594 17.6819C26.6405 18.0629 26.8307 18.5205 26.83 19.0545V22.9427C26.83 23.4774 26.6398 23.9352 26.2594 24.3163C25.879 24.6973 25.4212 24.8875 24.8859 24.8869H21.9697C21.435 24.8869 20.9775 24.6967 20.5971 24.3163C20.2167 23.9358 20.0262 23.478 20.0255 22.9427ZM21.9697 13.2221H24.8859V9.33378H21.9697V13.2221ZM21.9697 22.9427H24.8859V19.0545H21.9697V22.9427ZM9.33281 13.2221H12.249V9.33378H9.33281V13.2221Z" fill="#F2F2F2"/>
</svg>
