<svg width="26" height="24" viewBox="0 0 26 24" fill="none" xmlns="http://www.w3.org/2000/svg">
<path d="M23.7093 18.9675C24.2312 18.9677 24.733 19.1688 25.1107 19.5289C25.4884 19.8891 25.7131 20.3807 25.7382 20.902C25.7633 21.4233 25.5868 21.9343 25.2455 22.329C24.9041 22.7238 24.4239 22.9721 23.9044 23.0224L23.7093 23.0319H2.03223C1.51033 23.0317 1.00853 22.8306 0.630822 22.4705C0.253109 22.1103 0.0284349 21.6186 0.00335418 21.0973C-0.0217265 20.5761 0.154709 20.0651 0.496101 19.6703C0.837493 19.2756 1.31767 19.0273 1.83713 18.9769L2.03223 18.9675H23.7093ZM23.7093 9.48373C24.2483 9.48373 24.7652 9.69784 25.1463 10.079C25.5274 10.4601 25.7416 10.977 25.7416 11.516C25.7416 12.0549 25.5274 12.5718 25.1463 12.953C24.7652 13.3341 24.2483 13.5482 23.7093 13.5482H2.03223C1.49325 13.5482 0.976342 13.3341 0.595226 12.953C0.214109 12.5718 0 12.0549 0 11.516C0 10.977 0.214109 10.4601 0.595226 10.079C0.976342 9.69784 1.49325 9.48373 2.03223 9.48373H23.7093ZM23.7093 0C24.2483 0 24.7652 0.214109 25.1463 0.595226C25.5274 0.976342 25.7416 1.49325 25.7416 2.03223C25.7416 2.57121 25.5274 3.08811 25.1463 3.46923C24.7652 3.85035 24.2483 4.06446 23.7093 4.06446H2.03223C1.49325 4.06446 0.976342 3.85035 0.595226 3.46923C0.214109 3.08811 0 2.57121 0 2.03223C0 1.49325 0.214109 0.976342 0.595226 0.595226C0.976342 0.214109 1.49325 0 2.03223 0H23.7093Z" fill="#F2F2F2"/>
</svg>
