<svg width="32" height="19" viewBox="0 0 32 19" fill="none" xmlns="http://www.w3.org/2000/svg">
<g clip-path="url(#clip0_60_3616)">
<mask id="path-1-outside-1_60_3616" maskUnits="userSpaceOnUse" x="0.285156" y="-1.00037" width="31" height="12" fill="black">
<rect fill="white" x="0.285156" y="-1.00037" width="31" height="12"/>
<path d="M8.75632 6.7478C8.74831 7.05831 8.78662 7.36828 8.86997 7.6675C8.96179 7.92338 9.07235 8.17214 9.20076 8.41176C9.24673 8.48262 9.27181 8.565 9.27311 8.64945C9.27311 8.75276 9.21109 8.85619 9.07677 8.95944L8.42578 9.39348C8.34723 9.45004 8.25384 9.48237 8.15713 9.48645C8.03943 9.47836 7.92895 9.4268 7.84714 9.34179C7.70785 9.19218 7.58324 9.02954 7.47501 8.85613C7.3717 8.68046 7.26827 8.484 7.15468 8.24643C6.34867 9.19696 5.33596 9.67222 4.11655 9.67222C3.24824 9.67222 2.55619 9.42413 2.04986 8.92796C1.54352 8.43178 1.28516 7.77081 1.28516 6.94414C1.28516 6.06579 1.59515 5.35278 2.22553 4.81543C2.85591 4.27808 3.69285 4.00938 4.75721 4.00938C5.12377 4.01237 5.48972 4.04 5.85257 4.09207C6.23492 4.14376 6.62761 4.2264 7.04091 4.31943V3.56506C7.04091 2.77945 6.87552 2.23206 6.55525 1.91168C6.22447 1.59135 5.66657 1.43635 4.87085 1.43635C4.49481 1.43634 4.12012 1.48143 3.75481 1.57067C3.37494 1.66117 3.00198 1.77858 2.63877 1.92201C2.52126 1.97459 2.40044 2.01946 2.27709 2.05634C2.22359 2.07398 2.16797 2.08441 2.1117 2.08735C1.96704 2.08735 1.89468 1.98404 1.89468 1.76702V1.26068C1.89468 1.09529 1.91536 0.971246 1.96704 0.899005C2.04502 0.804813 2.14421 0.730441 2.25648 0.681987C2.67095 0.476914 3.10791 0.320864 3.55853 0.216999C4.08508 0.08189 4.62698 0.0158877 5.17057 0.0206556C6.40049 0.0206556 7.29928 0.299636 7.87797 0.857657C8.44633 1.41568 8.73565 2.26302 8.73565 3.39973V6.7478H8.75632ZM4.56092 8.31849C4.92344 8.3145 5.2829 8.25168 5.62528 8.13248C6.00456 8.00127 6.34296 7.77321 6.60694 7.47091C6.77351 7.28044 6.89376 7.05402 6.95828 6.80935C7.02928 6.51501 7.06397 6.21309 7.06159 5.91032V5.47676C6.74828 5.40049 6.43093 5.34184 6.11106 5.30109C5.78883 5.26027 5.46436 5.23966 5.13956 5.23936C4.44721 5.23936 3.94088 5.37369 3.59988 5.65284C3.25887 5.932 3.09354 6.32451 3.09354 6.84118C3.09354 7.32685 3.21758 7.68852 3.47589 7.93655C3.72398 8.19492 4.0856 8.3189 4.56092 8.3189V8.31849ZM12.8588 9.43453C12.6727 9.43453 12.5488 9.40352 12.4661 9.33122C12.3834 9.2692 12.3111 9.12448 12.249 8.92819L9.82056 0.940353C9.77349 0.806643 9.74228 0.667865 9.72759 0.526873C9.72759 0.361481 9.81028 0.268507 9.97568 0.268507H10.9883C11.1847 0.268507 11.3191 0.299518 11.3914 0.371818C11.4741 0.43384 11.536 0.578558 11.5981 0.774843L13.3341 7.61563L14.9461 0.77502C14.9978 0.56828 15.0598 0.434017 15.1425 0.371995C15.2252 0.309973 15.3698 0.268684 15.5559 0.268684H16.3829C16.5792 0.268684 16.7137 0.299695 16.7964 0.371995C16.8791 0.434017 16.9514 0.578735 16.9927 0.77502L18.6254 7.69851L20.4126 0.77502C20.4746 0.56828 20.5469 0.434017 20.6193 0.371995C20.702 0.309973 20.8363 0.268684 21.0223 0.268684H21.9834C22.1488 0.268684 22.2417 0.35138 22.2417 0.52705C22.2393 0.582649 22.2324 0.63796 22.2211 0.692442C22.2049 0.78059 22.1806 0.867072 22.1487 0.950808L19.6583 8.93865C19.5963 9.14531 19.524 9.27965 19.4413 9.34167C19.3245 9.41645 19.1871 9.4526 19.0486 9.44499H18.1599C17.9635 9.44499 17.8291 9.41397 17.7464 9.34167C17.6637 9.26937 17.5914 9.13493 17.55 8.92819L15.9485 2.26302L14.357 8.91786C14.3053 9.1246 14.2434 9.25886 14.1607 9.33134C14.078 9.40382 13.9333 9.43465 13.7472 9.43465L12.8588 9.43453ZM26.1374 9.71351C25.6015 9.71408 25.0673 9.65165 24.546 9.52751C24.0293 9.40346 23.6263 9.26914 23.3577 9.11403C23.1923 9.02105 23.0787 8.91768 23.0373 8.82459C22.9971 8.73336 22.976 8.63486 22.9753 8.53515V8.0085C22.9753 7.79148 23.058 7.68817 23.213 7.68817C23.2763 7.68838 23.3391 7.69885 23.399 7.71918C23.461 7.73985 23.554 7.7812 23.6574 7.82249C24.0224 7.98303 24.4034 8.10427 24.7941 8.18417C25.1988 8.26633 25.6108 8.30789 26.0238 8.30821C26.6748 8.30821 27.1812 8.19456 27.5325 7.96721C27.7008 7.86565 27.8392 7.7213 27.9337 7.54887C28.0281 7.37644 28.0751 7.18207 28.07 6.98555C28.0737 6.85252 28.0509 6.72009 28.003 6.59593C27.9551 6.47176 27.8831 6.35833 27.791 6.26219C27.605 6.06585 27.2535 5.89006 26.7474 5.72467L25.2487 5.25974C24.4943 5.02211 23.9363 4.67077 23.5953 4.20566C23.2627 3.77681 23.081 3.25003 23.0787 2.70727C23.0703 2.30716 23.1664 1.91178 23.3577 1.56022C23.5423 1.22777 23.7961 0.938814 24.1019 0.71288C24.424 0.469051 24.7883 0.286819 25.1766 0.175356C25.5996 0.0535978 26.0382 -0.00548858 26.4784 -1.84363e-05C26.7098 -0.00169629 26.9411 0.0121172 27.1707 0.0413296C27.4084 0.0723406 27.6255 0.113689 27.8424 0.154977C28.0491 0.206662 28.2454 0.258288 28.4314 0.320369C28.5822 0.367013 28.7277 0.429357 28.8654 0.506376C28.9871 0.567734 29.0932 0.65611 29.1754 0.764742C29.2426 0.865299 29.2753 0.984997 29.2684 1.10575V1.59141C29.2684 1.80842 29.1857 1.92219 29.0307 1.92219C28.948 1.92219 28.8137 1.88084 28.638 1.79815C28.049 1.52946 27.3876 1.39512 26.654 1.39512C26.0649 1.39512 25.6 1.4881 25.2796 1.68456C24.9593 1.88102 24.794 2.18073 24.794 2.60426C24.7911 2.74147 24.8173 2.87774 24.8707 3.00417C24.9241 3.13059 25.0036 3.24433 25.104 3.33795C25.3107 3.53429 25.693 3.73063 26.2407 3.9063L27.7081 4.37106C28.4523 4.60875 28.9894 4.93941 29.3098 5.36305C29.6252 5.77874 29.7925 6.288 29.7851 6.80976C29.7904 7.22482 29.6984 7.63536 29.5164 8.00844C29.3331 8.36212 29.0758 8.67225 28.7621 8.9178C28.4209 9.18337 28.0313 9.37998 27.615 9.49667C27.1364 9.64388 26.6381 9.71707 26.1373 9.71369L26.1374 9.71351Z"/>
</mask>
<path d="M8.75632 6.7478C8.74831 7.05831 8.78662 7.36828 8.86997 7.6675C8.96179 7.92338 9.07235 8.17214 9.20076 8.41176C9.24673 8.48262 9.27181 8.565 9.27311 8.64945C9.27311 8.75276 9.21109 8.85619 9.07677 8.95944L8.42578 9.39348C8.34723 9.45004 8.25384 9.48237 8.15713 9.48645C8.03943 9.47836 7.92895 9.4268 7.84714 9.34179C7.70785 9.19218 7.58324 9.02954 7.47501 8.85613C7.3717 8.68046 7.26827 8.484 7.15468 8.24643C6.34867 9.19696 5.33596 9.67222 4.11655 9.67222C3.24824 9.67222 2.55619 9.42413 2.04986 8.92796C1.54352 8.43178 1.28516 7.77081 1.28516 6.94414C1.28516 6.06579 1.59515 5.35278 2.22553 4.81543C2.85591 4.27808 3.69285 4.00938 4.75721 4.00938C5.12377 4.01237 5.48972 4.04 5.85257 4.09207C6.23492 4.14376 6.62761 4.2264 7.04091 4.31943V3.56506C7.04091 2.77945 6.87552 2.23206 6.55525 1.91168C6.22447 1.59135 5.66657 1.43635 4.87085 1.43635C4.49481 1.43634 4.12012 1.48143 3.75481 1.57067C3.37494 1.66117 3.00198 1.77858 2.63877 1.92201C2.52126 1.97459 2.40044 2.01946 2.27709 2.05634C2.22359 2.07398 2.16797 2.08441 2.1117 2.08735C1.96704 2.08735 1.89468 1.98404 1.89468 1.76702V1.26068C1.89468 1.09529 1.91536 0.971246 1.96704 0.899005C2.04502 0.804813 2.14421 0.730441 2.25648 0.681987C2.67095 0.476914 3.10791 0.320864 3.55853 0.216999C4.08508 0.08189 4.62698 0.0158877 5.17057 0.0206556C6.40049 0.0206556 7.29928 0.299636 7.87797 0.857657C8.44633 1.41568 8.73565 2.26302 8.73565 3.39973V6.7478H8.75632ZM4.56092 8.31849C4.92344 8.3145 5.2829 8.25168 5.62528 8.13248C6.00456 8.00127 6.34296 7.77321 6.60694 7.47091C6.77351 7.28044 6.89376 7.05402 6.95828 6.80935C7.02928 6.51501 7.06397 6.21309 7.06159 5.91032V5.47676C6.74828 5.40049 6.43093 5.34184 6.11106 5.30109C5.78883 5.26027 5.46436 5.23966 5.13956 5.23936C4.44721 5.23936 3.94088 5.37369 3.59988 5.65284C3.25887 5.932 3.09354 6.32451 3.09354 6.84118C3.09354 7.32685 3.21758 7.68852 3.47589 7.93655C3.72398 8.19492 4.0856 8.3189 4.56092 8.3189V8.31849ZM12.8588 9.43453C12.6727 9.43453 12.5488 9.40352 12.4661 9.33122C12.3834 9.2692 12.3111 9.12448 12.249 8.92819L9.82056 0.940353C9.77349 0.806643 9.74228 0.667865 9.72759 0.526873C9.72759 0.361481 9.81028 0.268507 9.97568 0.268507H10.9883C11.1847 0.268507 11.3191 0.299518 11.3914 0.371818C11.4741 0.43384 11.536 0.578558 11.5981 0.774843L13.3341 7.61563L14.9461 0.77502C14.9978 0.56828 15.0598 0.434017 15.1425 0.371995C15.2252 0.309973 15.3698 0.268684 15.5559 0.268684H16.3829C16.5792 0.268684 16.7137 0.299695 16.7964 0.371995C16.8791 0.434017 16.9514 0.578735 16.9927 0.77502L18.6254 7.69851L20.4126 0.77502C20.4746 0.56828 20.5469 0.434017 20.6193 0.371995C20.702 0.309973 20.8363 0.268684 21.0223 0.268684H21.9834C22.1488 0.268684 22.2417 0.35138 22.2417 0.52705C22.2393 0.582649 22.2324 0.63796 22.2211 0.692442C22.2049 0.78059 22.1806 0.867072 22.1487 0.950808L19.6583 8.93865C19.5963 9.14531 19.524 9.27965 19.4413 9.34167C19.3245 9.41645 19.1871 9.4526 19.0486 9.44499H18.1599C17.9635 9.44499 17.8291 9.41397 17.7464 9.34167C17.6637 9.26937 17.5914 9.13493 17.55 8.92819L15.9485 2.26302L14.357 8.91786C14.3053 9.1246 14.2434 9.25886 14.1607 9.33134C14.078 9.40382 13.9333 9.43465 13.7472 9.43465L12.8588 9.43453ZM26.1374 9.71351C25.6015 9.71408 25.0673 9.65165 24.546 9.52751C24.0293 9.40346 23.6263 9.26914 23.3577 9.11403C23.1923 9.02105 23.0787 8.91768 23.0373 8.82459C22.9971 8.73336 22.976 8.63486 22.9753 8.53515V8.0085C22.9753 7.79148 23.058 7.68817 23.213 7.68817C23.2763 7.68838 23.3391 7.69885 23.399 7.71918C23.461 7.73985 23.554 7.7812 23.6574 7.82249C24.0224 7.98303 24.4034 8.10427 24.7941 8.18417C25.1988 8.26633 25.6108 8.30789 26.0238 8.30821C26.6748 8.30821 27.1812 8.19456 27.5325 7.96721C27.7008 7.86565 27.8392 7.7213 27.9337 7.54887C28.0281 7.37644 28.0751 7.18207 28.07 6.98555C28.0737 6.85252 28.0509 6.72009 28.003 6.59593C27.9551 6.47176 27.8831 6.35833 27.791 6.26219C27.605 6.06585 27.2535 5.89006 26.7474 5.72467L25.2487 5.25974C24.4943 5.02211 23.9363 4.67077 23.5953 4.20566C23.2627 3.77681 23.081 3.25003 23.0787 2.70727C23.0703 2.30716 23.1664 1.91178 23.3577 1.56022C23.5423 1.22777 23.7961 0.938814 24.1019 0.71288C24.424 0.469051 24.7883 0.286819 25.1766 0.175356C25.5996 0.0535978 26.0382 -0.00548858 26.4784 -1.84363e-05C26.7098 -0.00169629 26.9411 0.0121172 27.1707 0.0413296C27.4084 0.0723406 27.6255 0.113689 27.8424 0.154977C28.0491 0.206662 28.2454 0.258288 28.4314 0.320369C28.5822 0.367013 28.7277 0.429357 28.8654 0.506376C28.9871 0.567734 29.0932 0.65611 29.1754 0.764742C29.2426 0.865299 29.2753 0.984997 29.2684 1.10575V1.59141C29.2684 1.80842 29.1857 1.92219 29.0307 1.92219C28.948 1.92219 28.8137 1.88084 28.638 1.79815C28.049 1.52946 27.3876 1.39512 26.654 1.39512C26.0649 1.39512 25.6 1.4881 25.2796 1.68456C24.9593 1.88102 24.794 2.18073 24.794 2.60426C24.7911 2.74147 24.8173 2.87774 24.8707 3.00417C24.9241 3.13059 25.0036 3.24433 25.104 3.33795C25.3107 3.53429 25.693 3.73063 26.2407 3.9063L27.7081 4.37106C28.4523 4.60875 28.9894 4.93941 29.3098 5.36305C29.6252 5.77874 29.7925 6.288 29.7851 6.80976C29.7904 7.22482 29.6984 7.63536 29.5164 8.00844C29.3331 8.36212 29.0758 8.67225 28.7621 8.9178C28.4209 9.18337 28.0313 9.37998 27.615 9.49667C27.1364 9.64388 26.6381 9.71707 26.1373 9.71369L26.1374 9.71351Z" fill="#252F3E"/>
<path d="M8.75632 6.7478C8.74831 7.05831 8.78662 7.36828 8.86997 7.6675C8.96179 7.92338 9.07235 8.17214 9.20076 8.41176C9.24673 8.48262 9.27181 8.565 9.27311 8.64945C9.27311 8.75276 9.21109 8.85619 9.07677 8.95944L8.42578 9.39348C8.34723 9.45004 8.25384 9.48237 8.15713 9.48645C8.03943 9.47836 7.92895 9.4268 7.84714 9.34179C7.70785 9.19218 7.58324 9.02954 7.47501 8.85613C7.3717 8.68046 7.26827 8.484 7.15468 8.24643C6.34867 9.19696 5.33596 9.67222 4.11655 9.67222C3.24824 9.67222 2.55619 9.42413 2.04986 8.92796C1.54352 8.43178 1.28516 7.77081 1.28516 6.94414C1.28516 6.06579 1.59515 5.35278 2.22553 4.81543C2.85591 4.27808 3.69285 4.00938 4.75721 4.00938C5.12377 4.01237 5.48972 4.04 5.85257 4.09207C6.23492 4.14376 6.62761 4.2264 7.04091 4.31943V3.56506C7.04091 2.77945 6.87552 2.23206 6.55525 1.91168C6.22447 1.59135 5.66657 1.43635 4.87085 1.43635C4.49481 1.43634 4.12012 1.48143 3.75481 1.57067C3.37494 1.66117 3.00198 1.77858 2.63877 1.92201C2.52126 1.97459 2.40044 2.01946 2.27709 2.05634C2.22359 2.07398 2.16797 2.08441 2.1117 2.08735C1.96704 2.08735 1.89468 1.98404 1.89468 1.76702V1.26068C1.89468 1.09529 1.91536 0.971246 1.96704 0.899005C2.04502 0.804813 2.14421 0.730441 2.25648 0.681987C2.67095 0.476914 3.10791 0.320864 3.55853 0.216999C4.08508 0.08189 4.62698 0.0158877 5.17057 0.0206556C6.40049 0.0206556 7.29928 0.299636 7.87797 0.857657C8.44633 1.41568 8.73565 2.26302 8.73565 3.39973V6.7478H8.75632ZM4.56092 8.31849C4.92344 8.3145 5.2829 8.25168 5.62528 8.13248C6.00456 8.00127 6.34296 7.77321 6.60694 7.47091C6.77351 7.28044 6.89376 7.05402 6.95828 6.80935C7.02928 6.51501 7.06397 6.21309 7.06159 5.91032V5.47676C6.74828 5.40049 6.43093 5.34184 6.11106 5.30109C5.78883 5.26027 5.46436 5.23966 5.13956 5.23936C4.44721 5.23936 3.94088 5.37369 3.59988 5.65284C3.25887 5.932 3.09354 6.32451 3.09354 6.84118C3.09354 7.32685 3.21758 7.68852 3.47589 7.93655C3.72398 8.19492 4.0856 8.3189 4.56092 8.3189V8.31849ZM12.8588 9.43453C12.6727 9.43453 12.5488 9.40352 12.4661 9.33122C12.3834 9.2692 12.3111 9.12448 12.249 8.92819L9.82056 0.940353C9.77349 0.806643 9.74228 0.667865 9.72759 0.526873C9.72759 0.361481 9.81028 0.268507 9.97568 0.268507H10.9883C11.1847 0.268507 11.3191 0.299518 11.3914 0.371818C11.4741 0.43384 11.536 0.578558 11.5981 0.774843L13.3341 7.61563L14.9461 0.77502C14.9978 0.56828 15.0598 0.434017 15.1425 0.371995C15.2252 0.309973 15.3698 0.268684 15.5559 0.268684H16.3829C16.5792 0.268684 16.7137 0.299695 16.7964 0.371995C16.8791 0.434017 16.9514 0.578735 16.9927 0.77502L18.6254 7.69851L20.4126 0.77502C20.4746 0.56828 20.5469 0.434017 20.6193 0.371995C20.702 0.309973 20.8363 0.268684 21.0223 0.268684H21.9834C22.1488 0.268684 22.2417 0.35138 22.2417 0.52705C22.2393 0.582649 22.2324 0.63796 22.2211 0.692442C22.2049 0.78059 22.1806 0.867072 22.1487 0.950808L19.6583 8.93865C19.5963 9.14531 19.524 9.27965 19.4413 9.34167C19.3245 9.41645 19.1871 9.4526 19.0486 9.44499H18.1599C17.9635 9.44499 17.8291 9.41397 17.7464 9.34167C17.6637 9.26937 17.5914 9.13493 17.55 8.92819L15.9485 2.26302L14.357 8.91786C14.3053 9.1246 14.2434 9.25886 14.1607 9.33134C14.078 9.40382 13.9333 9.43465 13.7472 9.43465L12.8588 9.43453ZM26.1374 9.71351C25.6015 9.71408 25.0673 9.65165 24.546 9.52751C24.0293 9.40346 23.6263 9.26914 23.3577 9.11403C23.1923 9.02105 23.0787 8.91768 23.0373 8.82459C22.9971 8.73336 22.976 8.63486 22.9753 8.53515V8.0085C22.9753 7.79148 23.058 7.68817 23.213 7.68817C23.2763 7.68838 23.3391 7.69885 23.399 7.71918C23.461 7.73985 23.554 7.7812 23.6574 7.82249C24.0224 7.98303 24.4034 8.10427 24.7941 8.18417C25.1988 8.26633 25.6108 8.30789 26.0238 8.30821C26.6748 8.30821 27.1812 8.19456 27.5325 7.96721C27.7008 7.86565 27.8392 7.7213 27.9337 7.54887C28.0281 7.37644 28.0751 7.18207 28.07 6.98555C28.0737 6.85252 28.0509 6.72009 28.003 6.59593C27.9551 6.47176 27.8831 6.35833 27.791 6.26219C27.605 6.06585 27.2535 5.89006 26.7474 5.72467L25.2487 5.25974C24.4943 5.02211 23.9363 4.67077 23.5953 4.20566C23.2627 3.77681 23.081 3.25003 23.0787 2.70727C23.0703 2.30716 23.1664 1.91178 23.3577 1.56022C23.5423 1.22777 23.7961 0.938814 24.1019 0.71288C24.424 0.469051 24.7883 0.286819 25.1766 0.175356C25.5996 0.0535978 26.0382 -0.00548858 26.4784 -1.84363e-05C26.7098 -0.00169629 26.9411 0.0121172 27.1707 0.0413296C27.4084 0.0723406 27.6255 0.113689 27.8424 0.154977C28.0491 0.206662 28.2454 0.258288 28.4314 0.320369C28.5822 0.367013 28.7277 0.429357 28.8654 0.506376C28.9871 0.567734 29.0932 0.65611 29.1754 0.764742C29.2426 0.865299 29.2753 0.984997 29.2684 1.10575V1.59141C29.2684 1.80842 29.1857 1.92219 29.0307 1.92219C28.948 1.92219 28.8137 1.88084 28.638 1.79815C28.049 1.52946 27.3876 1.39512 26.654 1.39512C26.0649 1.39512 25.6 1.4881 25.2796 1.68456C24.9593 1.88102 24.794 2.18073 24.794 2.60426C24.7911 2.74147 24.8173 2.87774 24.8707 3.00417C24.9241 3.13059 25.0036 3.24433 25.104 3.33795C25.3107 3.53429 25.693 3.73063 26.2407 3.9063L27.7081 4.37106C28.4523 4.60875 28.9894 4.93941 29.3098 5.36305C29.6252 5.77874 29.7925 6.288 29.7851 6.80976C29.7904 7.22482 29.6984 7.63536 29.5164 8.00844C29.3331 8.36212 29.0758 8.67225 28.7621 8.9178C28.4209 9.18337 28.0313 9.37998 27.615 9.49667C27.1364 9.64388 26.6381 9.71707 26.1373 9.71369L26.1374 9.71351Z" stroke="black" stroke-width="2" mask="url(#path-1-outside-1_60_3616)"/>
<path d="M28.0898 14.7355C24.6901 17.2465 19.7506 18.5795 15.5036 18.5795C9.5514 18.5798 4.18827 16.3787 0.137642 12.7207C-0.182687 12.4312 0.106631 12.0386 0.488981 12.2658C4.87039 14.8079 10.2749 16.3475 15.8653 16.3475C19.6371 16.3475 23.7808 15.5618 27.5939 13.95C28.1622 13.6917 28.6479 14.3222 28.0901 14.7357L28.0898 14.7355Z" fill="#FF9900"/>
<path d="M29.505 13.1236C29.0709 12.5656 26.6322 12.855 25.5265 12.9893C25.1957 13.0306 25.1442 12.7412 25.4438 12.5243C27.3865 11.1603 30.5796 11.5529 30.9516 12.0076C31.3238 12.4726 30.8483 15.6657 29.0296 17.1951C28.7506 17.4328 28.4819 17.3087 28.6059 16.9987C29.0193 15.9757 29.939 13.6713 29.505 13.1236Z" fill="#FF9900"/>
</g>
<defs>
<clipPath id="clip0_60_3616">
<rect width="31.07" height="18.5797" fill="white"/>
</clipPath>
</defs>
</svg>
