<svg width="32" height="32" viewBox="0 0 32 32" fill="none" xmlns="http://www.w3.org/2000/svg">
<g clip-path="url(#clip0_60_3444)">
<path d="M28.0119 7.45199L16.2879 0.703972C16.0937 0.582605 15.8267 0.534058 15.5354 0.534058C15.2441 0.534058 14.9771 0.606878 14.7829 0.703972L3.13166 7.47626C2.71902 7.71899 2.42773 8.32583 2.42773 8.78703V22.3073C2.42773 22.5743 2.47628 22.8899 2.67047 23.1569L28.5945 8.10737C28.4489 7.81609 28.2304 7.59763 28.0119 7.45199Z" fill="#659AD3"/>
<path d="M2.59766 23.1325C2.71902 23.3267 2.88894 23.4966 3.05885 23.5937L14.7586 30.366C14.9528 30.4874 15.2198 30.5359 15.5111 30.5359C15.8024 30.5359 16.0694 30.4631 16.2636 30.366L27.9149 23.5937C28.3275 23.351 28.6188 22.7442 28.6188 22.283V8.76266C28.6188 8.5442 28.5945 8.30147 28.4731 8.08301L2.59766 23.1325Z" fill="#03599C"/>
<path d="M20.7055 18.4721C19.686 20.2683 17.7442 21.482 15.5353 21.482C12.2584 21.482 9.58828 18.8119 9.58828 15.535C9.58828 12.2581 12.2584 9.58804 15.5353 9.58804C17.7442 9.58804 19.686 10.8017 20.7055 12.6222L23.8611 10.8017C22.2105 7.91317 19.1035 5.94702 15.5353 5.94702C10.2437 5.94702 5.94727 10.2434 5.94727 15.535C5.94727 20.8266 10.2437 25.123 15.5353 25.123C19.0792 25.123 22.1862 23.1812 23.8368 20.3169L20.7055 18.4721Z" fill="white"/>
</g>
<defs>
<clipPath id="clip0_60_3444">
<rect width="31.07" height="31.07" fill="white"/>
</clipPath>
</defs>
</svg>
