<svg width="32" height="32" viewBox="0 0 32 32" fill="none" xmlns="http://www.w3.org/2000/svg">
<g clip-path="url(#clip0_60_3413)">
<path d="M4.5671 27.6982L2.12695 0.328247H28.9409L26.4983 27.6941L15.5177 30.7384L4.5671 27.6982Z" fill="#1572B6"/>
<path d="M15.5332 28.4115L24.4062 25.9514L26.4937 2.56592H15.5332V28.4115Z" fill="#33A9DC"/>
<path d="M15.5332 12.482H19.9752L20.282 9.04459H15.5332V5.68774H23.9507L23.8701 6.58842L23.0449 15.8388H15.5332V12.482Z" fill="white"/>
<path d="M15.5529 21.2L15.5381 21.2044L11.7997 20.195L11.5606 17.5177H8.19141L8.66152 22.7885L15.5376 24.6969L15.5529 24.6925V21.2Z" fill="#EBEBEB"/>
<path d="M19.6893 15.697L19.285 20.1924L15.541 21.203V24.6955L22.4226 22.7884L22.4731 22.2212L23.0571 15.697H19.6893Z" fill="white"/>
<path d="M15.5435 5.68774V9.04459H7.43523L7.368 8.29026L7.2151 6.58842L7.13477 5.68774H15.5435ZM15.5321 12.4825V15.8393H11.8408L11.7736 15.085L11.6204 13.3832L11.5403 12.4825H15.5321Z" fill="#EBEBEB"/>
</g>
<defs>
<clipPath id="clip0_60_3413">
<rect width="31.0661" height="31.0661" fill="white"/>
</clipPath>
</defs>
</svg>
