<svg width="32" height="31" viewBox="0 0 32 31" fill="none" xmlns="http://www.w3.org/2000/svg">
<g clip-path="url(#clip0_60_3645)">
<path d="M30.2924 12.6465C29.2487 12.0396 27.8651 11.9668 26.7 12.3066C26.5543 11.0444 25.729 9.95211 24.7581 9.17536L24.3697 8.8598L24.0299 9.24818C23.3745 10.0007 23.1803 11.2629 23.2774 12.2338C23.3502 12.9377 23.5687 13.6659 24.0056 14.2485C23.6658 14.4427 23.3017 14.7097 22.9618 14.8311C22.2822 15.0738 21.5297 15.3165 20.8015 15.3165H19.1752V11.894H16.0196V5.82562H12.3786V8.73844H6.31027V11.894H3.15472V15.2923H0.4361L0.387553 15.6564C0.266186 17.2099 0.460373 18.7148 1.11576 20.147L1.38276 20.681L1.40704 20.7295C3.32464 23.9822 6.67437 25.3415 10.3397 25.3415C17.4275 25.3415 23.2774 22.1616 25.9475 15.4865C27.7437 15.5835 29.5885 15.0495 30.4623 13.3261L30.6808 12.8892L30.2924 12.6465ZM6.79574 9.46664H9.22308V12.1367H6.79574V9.46664ZM9.97556 20.1955C9.97556 20.6081 9.63573 20.948 9.22308 20.948C8.81044 20.948 8.47061 20.6081 8.47061 20.1955C8.47061 19.7828 8.81044 19.443 9.22308 19.443C9.63573 19.4673 9.97556 19.7828 9.97556 20.1955ZM6.79574 12.6222H9.22308V15.2923H6.79574V12.6222ZM3.64019 12.6222H6.31027V15.2923H3.64019V12.6222ZM10.3639 24.8074C6.52873 24.7832 4.46549 23.4967 2.76635 21.7975C3.27609 21.8218 3.76156 21.8461 4.19848 21.8461C4.58686 21.8461 4.97523 21.8461 5.33933 21.8218C6.286 21.7733 7.11129 21.6519 7.79095 21.4577C8.34924 22.7442 9.36872 23.9336 11.1892 24.8074H10.3639ZM12.3786 15.2923H9.70855V12.6222H12.3786V15.2923ZM12.3786 12.1367H9.70855V9.46664H12.3786V12.1367ZM15.5342 15.2923H12.8641V12.6222H15.5342V15.2923ZM15.5342 12.1367H12.8641V9.46664H15.5342V12.1367ZM15.5342 8.98117H12.8641V6.31109H15.5342V8.98117ZM18.6897 15.2923H16.0196V12.6222H18.6897V15.2923ZM9.41727 19.71C9.36872 19.6858 9.29591 19.6615 9.22308 19.6615C8.9318 19.6615 8.68907 19.9042 8.68907 20.1955C8.68907 20.4868 8.9318 20.7295 9.22308 20.7295C9.51437 20.7295 9.7571 20.4868 9.7571 20.1955C9.7571 20.1227 9.73283 20.0499 9.70855 20.0013C9.66001 20.0741 9.61146 20.1227 9.51437 20.1227C9.393 20.1227 9.2959 20.0256 9.2959 19.9042C9.32018 19.8071 9.36872 19.7343 9.41727 19.71Z" fill="#4285F4"/>
</g>
<defs>
<clipPath id="clip0_60_3645">
<rect width="31.07" height="31.07" fill="white"/>
</clipPath>
</defs>
</svg>
