<svg width="29" height="31" viewBox="0 0 29 31" fill="none" xmlns="http://www.w3.org/2000/svg">
<g clip-path="url(#clip0_60_3652)">
<path d="M10.567 31.07C13.4254 31.07 15.7453 28.7501 15.7453 25.8917V20.7133H10.567C7.70857 20.7133 5.38867 23.0332 5.38867 25.8917C5.38867 28.7501 7.70857 31.07 10.567 31.07Z" fill="#0ACF83"/>
<path d="M5.38867 15.535C5.38867 12.6766 7.70857 10.3567 10.567 10.3567H15.7453V20.7134H10.567C7.70857 20.7134 5.38867 18.3935 5.38867 15.535Z" fill="#A259FF"/>
<path d="M5.38867 5.17833C5.38867 2.31989 7.70857 0 10.567 0H15.7453V10.3567H10.567C7.70857 10.3567 5.38867 8.03677 5.38867 5.17833Z" fill="#F24E1E"/>
<path d="M15.7461 0H20.9244C23.7829 0 26.1028 2.31989 26.1028 5.17833C26.1028 8.03677 23.7829 10.3567 20.9244 10.3567H15.7461V0Z" fill="#FF7262"/>
<path d="M26.1028 15.535C26.1028 18.3935 23.7829 20.7134 20.9244 20.7134C18.066 20.7134 15.7461 18.3935 15.7461 15.535C15.7461 12.6766 18.066 10.3567 20.9244 10.3567C23.7829 10.3567 26.1028 12.6766 26.1028 15.535Z" fill="#1ABCFE"/>
</g>
<defs>
<clipPath id="clip0_60_3652">
<rect width="30" height="31" fill="white"/>
</clipPath>
</defs>
</svg>
