<svg width="32" height="31" viewBox="0 0 32 31" fill="none" xmlns="http://www.w3.org/2000/svg">
<path d="M30.28 14.1704L16.9012 0.792307C16.1312 0.0218678 14.8816 0.0218678 14.1104 0.792307L11.3328 3.57064L14.8569 7.09466C15.6761 6.81819 16.615 7.00364 17.2677 7.65635C17.9238 8.31319 18.108 9.2601 17.8243 10.082L21.2206 13.4788C22.0423 13.1955 22.9906 13.3786 23.6465 14.0359C24.564 14.9527 24.564 16.439 23.6465 17.3563C22.729 18.2738 21.2432 18.2738 20.3252 17.3563C19.6353 16.6659 19.4647 15.6525 19.8142 14.8024L16.647 11.635L16.6465 19.9708C16.8703 20.0812 17.0813 20.2288 17.2677 20.4145C18.185 21.3313 18.185 22.8171 17.2677 23.7358C16.3504 24.6526 14.8637 24.6526 13.9473 23.7358C13.0303 22.8173 12.955 21.3315 13.8718 20.4145C14.0986 20.188 14.3221 20.0169 14.5648 19.9023V11.4894C14.3221 11.3748 14.0988 11.2049 13.8716 10.977C13.1771 10.2827 13.0473 9.26325 13.4036 8.4098L9.94877 4.93554L0.784574 14.1085C0.0138923 14.8796 0.018747 16.1292 0.789429 16.8999L14.1704 30.278C14.9406 31.0484 16.1912 31.0484 16.9626 30.278L30.279 16.9621C31.0497 16.1911 31.0504 14.9408 30.28 14.1704Z" fill="#EA4335"/>
</svg>
