<svg width="32" height="32" viewBox="0 0 32 32" fill="none" xmlns="http://www.w3.org/2000/svg">
<g clip-path="url(#clip0_60_3408)">
<path d="M4.61987 27.6407L2.19141 0.40332H28.8756L26.4445 27.6366L15.5172 30.6658L4.61987 27.6407Z" fill="#E44D26"/>
<path d="M15.5352 28.3503L24.365 25.9022L26.4425 2.63025H15.5352V28.3503Z" fill="#F16529"/>
<path d="M15.5349 12.7322H11.1144L10.809 9.3112H15.5349V5.97083H7.1582L7.2383 6.86697L8.0592 16.0728H15.5349V12.7322ZM15.5349 21.4079L15.5201 21.412L11.7998 20.4071L11.5622 17.7432H8.20847L8.67645 22.9883L15.5196 24.8878L15.5349 24.8837V21.4079Z" fill="#EBEBEB"/>
<path d="M15.5234 12.7322V16.0728H19.6369L19.2493 20.4052L15.5234 21.4108V24.8864L22.3719 22.9883L22.4222 22.4239L23.2071 13.6293L23.2884 12.7322H22.3884H15.5234ZM15.5234 5.97083V9.3112H23.5926L23.6596 8.5607L23.812 6.86697L23.8919 5.97083H15.5234Z" fill="white"/>
</g>
<defs>
<clipPath id="clip0_60_3408">
<rect width="31.0688" height="31.0688" fill="white"/>
</clipPath>
</defs>
</svg>
