<svg width="32" height="32" viewBox="0 0 32 32" fill="none" xmlns="http://www.w3.org/2000/svg">
<g clip-path="url(#clip0_60_3435)">
<path d="M11.5584 23.8171C11.5584 23.8171 10.4013 24.4904 12.383 24.7176C14.7841 24.9919 16.0112 24.9526 18.6565 24.4526C18.6565 24.4526 19.3534 24.8883 20.3248 25.266C14.3926 27.8074 6.89963 25.1186 11.5584 23.8171ZM10.8331 20.5001C10.8331 20.5001 9.535 21.4611 11.5184 21.6665C14.0834 21.9313 16.1085 21.9529 19.6145 21.2781C19.6145 21.2781 20.0983 21.7696 20.8603 22.0381C13.6894 24.1353 5.70247 22.2031 10.8331 20.5001Z" fill="#4285F4"/>
<path d="M16.9437 14.8726C18.4062 16.5559 16.5602 18.0694 16.5602 18.0694C16.5602 18.0694 20.2714 16.154 18.5674 13.7543C16.9753 11.5175 15.7548 10.4065 22.3625 6.57422C22.3625 6.57446 11.9902 9.16419 16.9437 14.8726Z" fill="#EA4335"/>
<path d="M24.7883 26.2709C24.7883 26.2709 25.6449 26.9773 23.8446 27.5232C20.4215 28.5602 9.5946 28.8728 6.58761 27.5647C5.5072 27.0943 7.53403 26.4421 8.17169 26.3044C8.83654 26.1605 9.21618 26.1867 9.21618 26.1867C8.01392 25.3403 1.44553 27.8494 5.88028 28.5691C17.9736 30.5295 27.9247 27.6863 24.7883 26.2709ZM12.1149 17.0628C12.1149 17.0628 6.60824 18.3709 10.165 18.8464C11.6671 19.0474 14.66 19.0013 17.4497 18.7673C19.729 18.5758 22.0163 18.1668 22.0163 18.1668C22.0163 18.1668 21.2133 18.5112 20.6317 18.9078C15.0387 20.379 4.23649 19.6938 7.34664 18.1898C9.97594 16.9181 12.1149 17.0628 12.1149 17.0628ZM21.9935 22.5843C27.6786 19.6309 25.0497 16.7926 23.2149 17.175C22.7663 17.2684 22.5651 17.3497 22.5651 17.3497C22.5651 17.3497 22.7321 17.0878 23.0506 16.9752C26.6802 15.6996 29.4712 20.7383 21.8799 22.7341C21.8799 22.7336 21.967 22.6547 21.9935 22.5843Z" fill="#4285F4"/>
<path d="M18.5667 0.385254C18.5667 0.385254 21.7145 3.53497 15.5803 8.3768C10.6611 12.262 14.4587 14.4767 15.5786 17.0082C12.7069 14.4175 10.6004 12.1365 12.0134 10.0138C14.0883 6.89855 19.8364 5.38752 18.5667 0.385254Z" fill="#EA4335"/>
<path d="M12.6742 30.5896C18.1299 30.9384 26.51 30.3954 26.7083 27.8137C26.7083 27.8137 26.327 28.7924 22.1991 29.5689C17.542 30.4457 11.7969 30.3435 8.39062 29.7811C8.39062 29.7813 9.08849 30.359 12.6742 30.5896Z" fill="#4285F4"/>
</g>
<defs>
<clipPath id="clip0_60_3435">
<rect width="31.07" height="31.07" fill="white"/>
</clipPath>
</defs>
</svg>
