<svg width="32" height="32" viewBox="0 0 32 32" fill="none" xmlns="http://www.w3.org/2000/svg">
<g clip-path="url(#clip0_60_3420)">
<path d="M0.341797 0.341797H30.7245V30.7247H0.341797V0.341797Z" fill="#F0DB4F"/>
<path d="M28.2369 23.4782C28.0143 22.0922 27.1105 20.9279 24.4332 19.8423C23.5032 19.4149 22.4664 19.1088 22.1574 18.404C22.0477 17.9939 22.0331 17.7628 22.1025 17.5145C22.3018 16.7087 23.2636 16.4575 24.026 16.6886C24.517 16.8531 24.9818 17.2315 25.2621 17.8351C26.5732 16.9862 26.5705 16.9917 27.486 16.4083C27.1508 15.8886 26.9719 15.6489 26.7525 15.4265C25.964 14.5458 24.8895 14.0921 23.1712 14.1269L22.2761 14.2426C21.4184 14.4594 20.6009 14.9096 20.1216 15.5132C18.6833 17.1451 19.0935 20.0013 20.8436 21.1767C22.5678 22.4708 25.1007 22.7652 25.4242 23.9753C25.739 25.4568 24.3354 25.9364 22.9404 25.766C21.9123 25.5522 21.3405 25.0296 20.7223 24.0794C19.5845 24.7379 19.5845 24.7379 18.4147 25.4107C18.6921 26.0172 18.9836 26.2917 19.4486 26.8171C21.6494 29.0495 27.1569 28.9398 28.1447 25.5609C28.1847 25.4449 28.4507 24.6711 28.2369 23.4782ZM16.8577 14.3057H14.0159L14.0042 21.6529C14.0042 23.2154 14.0851 24.6478 13.8309 25.0869C13.4152 25.9504 12.3378 25.8434 11.8468 25.6759C11.3471 25.4303 11.093 25.0811 10.7986 24.5874C10.7178 24.4457 10.6571 24.336 10.6367 24.3275L8.32617 25.7424C8.71037 26.531 9.27636 27.2154 10.0013 27.66C11.0843 28.31 12.5398 28.5093 14.062 28.1598C15.0527 27.8712 15.9075 27.2734 16.3551 26.3635C17.0021 25.1706 16.8633 23.7268 16.8575 22.1298C16.872 19.5244 16.8577 16.9194 16.8577 14.3057Z" fill="#323330"/>
</g>
<defs>
<clipPath id="clip0_60_3420">
<rect width="31.0661" height="31.0661" fill="white"/>
</clipPath>
</defs>
</svg>
