<svg width="32" height="31" viewBox="0 0 32 31" fill="none" xmlns="http://www.w3.org/2000/svg">
<g clip-path="url(#clip0_60_3647)">
<path d="M10.2413 30.5604C9.49948 30.5604 8.79895 30.2308 8.32498 29.6332L1.11319 20.6698C0.639224 20.0722 0.453829 19.3099 0.639223 18.5679L3.21491 7.37914C3.37972 6.63731 3.87427 6.03971 4.55434 5.71009L14.9807 0.723408C15.3105 0.558724 15.6814 0.476257 16.0523 0.476257C16.4232 0.476257 16.794 0.558599 17.1237 0.723533L27.5502 5.68951C28.2302 6.01912 28.7247 6.61673 28.8895 7.35856L31.4652 18.5473C31.6302 19.2892 31.4652 20.0516 30.9914 20.6492L23.7793 29.6126C23.3054 30.1895 22.6048 30.5398 21.863 30.5398L10.2416 30.5604H10.2413Z" fill="#326DE6"/>
<path d="M16.0312 0.991405C16.3198 0.991405 16.6082 1.05316 16.8761 1.1768L27.3026 6.14277C27.8383 6.41063 28.2504 6.90519 28.374 7.4822L30.9497 18.671C31.0939 19.2686 30.9497 19.8868 30.5582 20.3606L23.3463 29.3242C22.9754 29.798 22.3984 30.0659 21.8009 30.0659H10.2411C9.64345 30.0659 9.06656 29.798 8.69565 29.3242L1.48373 20.3606C1.11282 19.8868 0.968469 19.2686 1.09223 18.671L3.66792 7.4822C3.81214 6.8846 4.20364 6.39005 4.73936 6.14277L15.166 1.15634C15.4338 1.05329 15.7429 0.99153 16.0313 0.99153L16.0312 0.991405ZM16.0312 0.0228882C15.5985 0.0228882 15.1659 0.125941 14.7537 0.311335L4.32728 5.29802C3.50298 5.68952 2.92609 6.41063 2.71998 7.29668L0.1443 18.4856C-0.0616796 19.3716 0.1443 20.2783 0.721319 20.9995L7.93324 29.963C8.48967 30.6635 9.33442 31.055 10.2205 31.055H21.7802C22.6662 31.055 23.5111 30.6635 24.0674 29.963L31.2795 20.9994C31.8563 20.2989 32.0625 19.3716 31.8563 18.4855L29.2807 7.29668C29.0747 6.41063 28.4977 5.68952 27.6735 5.29802L17.2882 0.31121C16.8967 0.125941 16.464 0.0228882 16.0312 0.0228882Z" fill="white"/>
<path d="M26.4787 17.785C26.4581 17.785 26.4581 17.785 26.4787 17.785H26.4581C26.4375 17.785 26.4169 17.785 26.4169 17.7644C26.3757 17.7644 26.3346 17.7438 26.2933 17.7438C26.149 17.7232 26.0254 17.7026 25.9018 17.7026C25.8399 17.7026 25.7781 17.7026 25.6957 17.6819H25.6751C25.2424 17.6407 24.8921 17.5996 24.5623 17.4965C24.4181 17.4346 24.3769 17.3523 24.3356 17.2698C24.3356 17.2492 24.3151 17.2492 24.3151 17.2286L24.0472 17.1463C24.1737 16.177 24.1249 15.1928 23.903 14.2408C23.678 13.2808 23.2875 12.3674 22.7491 11.5414L22.9552 11.356V11.3149C22.9552 11.2118 22.9757 11.1088 23.0581 11.0057C23.3054 10.779 23.6145 10.5936 23.9854 10.3669C24.0472 10.3258 24.1089 10.3052 24.1708 10.2639C24.2945 10.2021 24.3975 10.1404 24.5212 10.0579C24.5417 10.0373 24.5829 10.0167 24.6242 9.97556C24.6448 9.95485 24.6654 9.95485 24.6654 9.93427C24.9538 9.68699 25.0157 9.27491 24.8096 9.00692C24.7066 8.8627 24.5212 8.78035 24.3356 8.78035C24.171 8.78035 24.0266 8.84211 23.8824 8.94516L23.8412 8.98633C23.8 9.00692 23.7793 9.04822 23.7382 9.0688C23.6351 9.17185 23.5526 9.2542 23.4703 9.35725C23.4291 9.39842 23.388 9.4603 23.3261 9.50147C23.0375 9.81063 22.7696 10.0579 22.5018 10.2433C22.44 10.2845 22.3783 10.3052 22.3164 10.3052C22.2752 10.3052 22.2339 10.3052 22.1928 10.2845H22.1516L21.9042 10.4494C21.6363 10.161 21.3479 9.91368 21.0594 9.6664C19.8174 8.69553 18.3225 8.10188 16.7528 7.95606L16.7322 7.6882L16.6911 7.64703C16.6292 7.58515 16.5468 7.52339 16.5261 7.37917C16.5055 7.04942 16.5468 6.67851 16.588 6.26643V6.24584C16.588 6.18396 16.6086 6.10162 16.6292 6.03974C16.6498 5.91622 16.6703 5.79246 16.6911 5.64824V5.46284C16.6911 5.09193 16.4025 4.7829 16.0523 4.7829C15.8873 4.7829 15.7225 4.86524 15.5989 4.98888C15.4754 5.11252 15.4135 5.27732 15.4135 5.46284V5.62765C15.4135 5.77188 15.4341 5.89551 15.4753 6.01915C15.4958 6.08103 15.4958 6.14279 15.5164 6.22526V6.24584C15.5576 6.65793 15.6195 7.02884 15.5783 7.35858C15.5577 7.50281 15.4753 7.56456 15.4135 7.62644L15.3723 7.66761L15.3516 7.93548C14.9807 7.97665 14.6098 8.01782 14.2389 8.10028C12.6523 8.45061 11.2511 9.25432 10.1591 10.4081L9.95298 10.2639H9.91181C9.87064 10.2639 9.82934 10.2845 9.78817 10.2845C9.72629 10.2845 9.66453 10.2639 9.60265 10.2227C9.33479 10.0373 9.06693 9.76933 8.77849 9.4603C8.73731 9.41913 8.69614 9.35725 8.63426 9.31608C8.5518 9.21302 8.46933 9.13056 8.36628 9.02763C8.34569 9.00692 8.30452 8.98646 8.26335 8.94516C8.24276 8.92458 8.22218 8.92458 8.22218 8.90399C8.09451 8.79852 7.93439 8.74027 7.7688 8.73906C7.58328 8.73906 7.39788 8.82153 7.29483 8.96575C7.08873 9.23361 7.15061 9.64569 7.43905 9.89297C7.45964 9.89297 7.45964 9.91368 7.48023 9.91368C7.5214 9.93427 7.54211 9.97544 7.58328 9.99602C7.70692 10.0784 7.80997 10.1402 7.93361 10.2021C7.99549 10.2227 8.05724 10.2639 8.11912 10.3052C8.48991 10.5317 8.79907 10.7173 9.04635 10.944C9.1494 11.0469 9.1494 11.1499 9.1494 11.253V11.2942L9.35538 11.4797C9.31421 11.5414 9.27304 11.5827 9.25233 11.6445C8.22205 13.2724 7.83055 15.1887 8.09841 17.0844L7.83055 17.1668C7.83055 17.1875 7.80997 17.1875 7.80997 17.2079C7.7688 17.2904 7.70692 17.3729 7.58328 17.4346C7.27425 17.5377 6.90333 17.579 6.47066 17.6201H6.44995C6.3882 17.6201 6.30573 17.6201 6.24397 17.6407C6.12033 17.6407 5.9967 17.6613 5.85247 17.6819C5.8113 17.6819 5.77013 17.7026 5.72884 17.7026C5.70825 17.7026 5.68766 17.7026 5.66695 17.7232C5.29604 17.8055 5.06935 18.1559 5.13123 18.4855C5.19311 18.7741 5.46097 18.9596 5.79059 18.9596C5.85247 18.9596 5.89364 18.9596 5.95553 18.9389C5.97611 18.9389 5.9967 18.9389 5.9967 18.9183C6.03787 18.9183 6.07904 18.8977 6.12021 18.8977C6.26456 18.8565 6.36761 18.8154 6.49125 18.7535C6.553 18.7329 6.61476 18.6916 6.67664 18.6711H6.69723C7.08873 18.5268 7.43905 18.4031 7.7688 18.362H7.80997C7.93361 18.362 8.01607 18.4237 8.07783 18.465C8.09841 18.465 8.09841 18.4856 8.119 18.4856L8.40757 18.4444C8.90212 19.9691 9.84993 21.3292 11.1069 22.3183C11.3953 22.5448 11.6838 22.7303 11.9929 22.9159L11.8693 23.1836C11.8693 23.2043 11.8899 23.2043 11.8899 23.2248C11.9311 23.3072 11.9722 23.4103 11.9311 23.5545C11.8075 23.8637 11.622 24.1727 11.3953 24.523V24.5436C11.3542 24.6055 11.313 24.6467 11.2718 24.7084C11.1894 24.8115 11.1275 24.9145 11.045 25.0382C11.0244 25.0588 11.0038 25.0999 10.9833 25.1412C10.9833 25.1618 10.9627 25.1824 10.9627 25.1824C10.7979 25.5327 10.9215 25.9242 11.2305 26.0684C11.3129 26.1096 11.3953 26.1303 11.4778 26.1303C11.7251 26.1303 11.9724 25.9654 12.096 25.7387C12.096 25.7181 12.1166 25.6975 12.1166 25.6975C12.1372 25.6564 12.1578 25.6152 12.1783 25.5945C12.2402 25.4503 12.2608 25.3472 12.302 25.2236L12.3639 25.0382C12.5081 24.6261 12.6111 24.2963 12.7965 24.0079C12.8789 23.8843 12.982 23.8637 13.0644 23.8224C13.085 23.8224 13.085 23.8224 13.1056 23.8018L13.2499 23.5339C14.1565 23.8843 15.1456 24.0697 16.1346 24.0697C16.7322 24.0697 17.3504 24.0079 17.9274 23.8637C18.2905 23.7825 18.6483 23.6792 18.9989 23.5545L19.1224 23.7812C19.1431 23.7812 19.1431 23.7812 19.1637 23.8018C19.2667 23.8224 19.3491 23.8637 19.4315 23.9873C19.5964 24.2758 19.72 24.6261 19.8642 25.0176V25.0382L19.9261 25.2236C19.9673 25.3472 19.9879 25.4708 20.0496 25.5945C20.0703 25.6356 20.0909 25.6564 20.1115 25.6975C20.1115 25.7181 20.1322 25.7387 20.1322 25.7387C20.2557 25.986 20.503 26.1303 20.7503 26.1303C20.8327 26.1303 20.9152 26.1096 20.9975 26.0684C21.1418 25.9861 21.2654 25.8623 21.3067 25.6975C21.3479 25.5327 21.3479 25.3472 21.2655 25.1824C21.2655 25.1618 21.2448 25.1618 21.2448 25.1412C21.2242 25.1 21.2036 25.0589 21.1831 25.0382C21.1212 24.9145 21.0388 24.8115 20.9564 24.7084C20.9152 24.6467 20.874 24.6055 20.8329 24.5437V24.523C20.606 24.1727 20.3999 23.8637 20.297 23.5545C20.2558 23.4103 20.297 23.3279 20.3176 23.2249C20.3176 23.2043 20.3382 23.2043 20.3382 23.1837L20.2351 22.9364C21.3273 22.2977 22.2545 21.3909 22.9552 20.2783C23.3261 19.7013 23.6145 19.0625 23.8205 18.4237L24.0678 18.4649C24.0885 18.4649 24.0885 18.4443 24.109 18.4443C24.1914 18.4031 24.2533 18.3414 24.3769 18.3414H24.4181C24.7479 18.3826 25.0981 18.5061 25.4897 18.6504H25.5103C25.572 18.671 25.6338 18.7122 25.6957 18.7328C25.8193 18.7946 25.9223 18.8358 26.0666 18.8771C26.1077 18.8771 26.1489 18.8977 26.1902 18.8977C26.2108 18.8977 26.2314 18.8977 26.252 18.9183C26.3138 18.9389 26.355 18.9389 26.4169 18.9389C26.7259 18.9389 26.9938 18.7329 27.0763 18.465C27.0763 18.2178 26.8496 17.888 26.4787 17.7851V17.785ZM16.9382 16.7753L16.0316 17.2081L15.1249 16.7753L14.8984 15.8069L15.5164 15.0239H16.5261L17.1443 15.8069L16.9383 16.7753H16.9382ZM22.3164 14.6324C22.4762 15.3138 22.5249 16.0165 22.4606 16.7134L19.3079 15.8069C19.0195 15.7245 18.8547 15.436 18.9164 15.1475C18.937 15.065 18.9783 14.9826 19.04 14.9208L21.5334 12.6748C21.8836 13.2518 22.1515 13.9113 22.3164 14.6324ZM20.5443 11.4385L17.845 13.3548C17.6183 13.4991 17.3091 13.4578 17.1237 13.2312C17.062 13.1693 17.0414 13.0868 17.0207 13.0045L16.8353 9.64569C18.2386 9.80729 19.5459 10.4392 20.5443 11.4385ZM14.5686 9.74862C14.7953 9.70745 15.0013 9.66628 15.228 9.62511L15.0426 12.9219C15.022 13.2104 14.7953 13.4576 14.4862 13.4576C14.4038 13.4576 14.3008 13.437 14.2389 13.3959L11.4984 11.4385C12.3433 10.5936 13.3941 10.0165 14.5686 9.74862ZM10.5093 12.6746L12.9613 14.8588C13.188 15.0443 13.2086 15.3945 13.0232 15.6212C12.9613 15.7036 12.879 15.7655 12.7759 15.7862L9.58207 16.7134C9.45843 15.3122 9.76746 13.8904 10.5093 12.6746ZM9.95286 18.2588L13.2293 17.7024C13.4972 17.6818 13.7445 17.8673 13.8062 18.1352C13.8268 18.2587 13.8268 18.3618 13.7856 18.4649L12.5287 21.4938C11.3748 20.752 10.4474 19.6187 9.95286 18.2588ZM17.4741 22.3593C17.0001 22.4624 16.5261 22.5241 16.0316 22.5241C15.3105 22.5241 14.6098 22.4006 13.9506 22.1945L15.5783 19.2479C15.7431 19.0624 16.011 18.98 16.2377 19.1037C16.3339 19.1626 16.4178 19.2395 16.485 19.3302L18.0715 22.1945C17.8861 22.2563 17.68 22.2976 17.4739 22.3593H17.4741ZM21.4921 19.4952C20.977 20.3193 20.2969 20.9787 19.514 21.4938L18.2159 18.3823C18.154 18.1352 18.2571 17.8673 18.5043 17.7435C18.5867 17.7024 18.6897 17.6818 18.7928 17.6818L22.0897 18.2382C21.9661 18.6915 21.76 19.1037 21.4921 19.4952Z" fill="white"/>
</g>
<defs>
<clipPath id="clip0_60_3647">
<rect width="31.9387" height="31.07" fill="white"/>
</clipPath>
</defs>
</svg>
