<svg width="32" height="31" viewBox="0 0 32 31" fill="none" xmlns="http://www.w3.org/2000/svg">
<g clip-path="url(#clip0_60_3620)">
<path d="M8.45674 25.3142C8.26773 25.3142 8.09944 25.3026 7.95703 25.2819V25.9084C8.24961 26.0262 8.49169 26.0845 8.68977 26.0845C9.43156 26.0845 10.1151 25.6314 10.7391 24.72C11.5366 23.5419 12.1813 21.6505 12.6706 19.051H11.5314C11.3268 20.6472 10.9669 22.1257 10.4504 23.4785C10.4866 23.2079 10.3973 22.7328 10.185 22.0519L9.24385 19.051H8.06578L9.37848 23.0629C9.57526 23.6662 9.67624 24.0675 9.67624 24.263C9.67624 24.5478 9.54937 24.8042 9.29434 25.0333C9.08202 25.2171 8.80369 25.3142 8.45674 25.3142Z" fill="#105E86"/>
<path d="M25.2207 17.209V24.236H28.6255V23.3738H26.3664V17.209H25.2207Z" fill="#DE8A03"/>
<path d="M1.34637 18.6329H1.35931L3.17173 24.2372H4.08441L5.90977 18.6329H5.92013C6.11043 20.3871 6.23083 22.2526 6.26967 24.2372H7.46975H7.47363C7.41667 22.1153 7.23284 19.7695 6.91955 17.2102H5.50198L3.75818 22.3743H3.74782L2.01955 17.2089H0.530779C0.24856 19.3941 0.0712021 21.7386 0 24.2359H1.09392C1.12888 22.1827 1.21302 20.3133 1.34637 18.6329Z" fill="#105E86"/>
<path d="M24.1818 20.5916C24.1818 18.2653 23.2523 17.1014 21.392 17.1014C20.4806 17.1014 19.7686 17.3966 19.2559 17.9882C18.6993 18.6342 18.4196 19.5845 18.4196 20.8415C18.4196 22.0765 18.6656 22.984 19.164 23.5601C19.6158 24.0831 20.2994 24.3433 21.2133 24.3433C21.5551 24.3433 21.8684 24.3019 22.1519 24.2178L23.8672 25.1991L24.3333 24.4081H24.3294L23.0141 23.7724C23.1306 23.6766 23.2432 23.5705 23.3455 23.4553C23.9035 22.8118 24.1818 21.8564 24.1818 20.5916ZM21.3298 23.4721C20.7538 23.4721 20.333 23.2598 20.0637 22.8364L20.0663 22.83C19.7751 22.373 19.6301 21.6351 19.6301 20.624C19.6301 18.8543 20.179 17.9675 21.2742 17.9675C21.8477 17.9675 22.271 18.1798 22.539 18.6032C22.829 19.0627 22.974 19.7929 22.974 20.7923C22.974 22.5762 22.4251 23.4721 21.3298 23.4721ZM17.0888 20.8091C17.0888 20.8091 16.0609 20.2304 15.5521 19.9573C14.9929 19.6531 14.6899 19.2932 14.6899 18.8776C14.6899 18.6057 14.8129 18.3844 15.011 18.2109C15.2078 18.0348 15.4913 17.9494 15.8576 17.9494C16.3095 17.9494 16.769 18.0478 17.2351 18.242L17.5108 17.6361C16.9671 17.2879 16.3612 17.1157 15.6984 17.1157C15.0511 17.1157 14.5268 17.2904 14.119 17.6439C13.7138 17.9921 13.5106 18.4504 13.5106 19.0226C13.5106 19.71 13.7824 20.1295 14.3287 20.5191C14.3287 20.5191 15.3333 21.0836 15.8343 21.3541C16.3755 21.6519 16.6732 22.0092 16.6732 22.4287C16.6732 22.7588 16.5282 23.0229 16.2849 23.2106C16.0389 23.397 15.701 23.4902 15.2712 23.4902C14.809 23.4902 14.2977 23.3543 13.7306 23.0734L13.4238 23.6792C14.0828 24.1155 14.7572 24.3343 15.4602 24.3343C16.2124 24.3343 16.8066 24.1427 17.2532 23.7608C17.6985 23.3802 17.9212 22.8895 17.9212 22.2914L17.929 22.2953C17.9277 21.6105 17.6493 21.1962 17.0888 20.8091Z" fill="#DE8A03"/>
<path d="M12.3107 20.7237H11.2517C11.0498 21.692 10.7818 22.6112 10.4504 23.4786C10.4866 23.208 10.3973 22.7329 10.185 22.0519L9.76815 20.725H8.61338L9.37848 23.0643C9.57526 23.6676 9.67624 24.0689 9.67624 24.2644C9.67624 24.5492 9.54937 24.8055 9.29434 25.0347C9.08202 25.2198 8.80369 25.3169 8.45674 25.3169C8.26773 25.3169 8.09944 25.3052 7.95703 25.2845V25.9111C8.24961 26.0289 8.49169 26.0872 8.68977 26.0872C9.43156 26.0872 10.1151 25.634 10.7391 24.7227C11.354 23.8113 11.8783 22.4779 12.3107 20.7237Z" fill="#0E5275"/>
<path d="M26.3664 20.7237H25.2207V24.2359H28.6255V23.3737H26.3664V20.7237Z" fill="#C17803"/>
<path d="M1.21044 20.7237H0.177358C0.09321 21.8577 0.0349538 23.0293 0 24.2359H1.09392C1.11464 22.9983 1.15347 21.8267 1.21044 20.7237ZM5.22882 20.7237H4.31485L3.75818 22.373H3.74782L3.19503 20.7237H2.03638L3.17173 24.2372H4.08441L5.22882 20.7237ZM7.27944 20.7237H6.10914C6.19199 21.8513 6.24636 23.0216 6.26967 24.2372H7.46975H7.47363C7.44385 23.1264 7.37913 21.9548 7.27944 20.7237Z" fill="#0E5275"/>
<path d="M24.1805 20.7237H22.974C22.974 20.747 22.974 20.7703 22.974 20.7936C22.974 22.5775 22.4251 23.4721 21.3298 23.4721C20.7538 23.4721 20.333 23.2598 20.0637 22.8365L20.0663 22.83C19.7841 22.3872 19.6404 21.6843 19.6301 20.7237H18.4196C18.4196 20.7625 18.4183 20.8014 18.4183 20.8415C18.4183 22.0765 18.6643 22.984 19.1627 23.5601C19.6145 24.0831 20.2981 24.3434 21.212 24.3434C21.5538 24.3434 21.8671 24.3019 22.1506 24.2178L23.8659 25.1991L24.332 24.4081H24.3281L23.0128 23.7724C23.1293 23.6766 23.2419 23.5705 23.3442 23.4553C23.8841 22.8352 24.1624 21.9225 24.1805 20.7237ZM16.936 20.7237H14.6951C15.033 20.9127 15.5275 21.1884 15.8343 21.3529C16.3755 21.6506 16.6732 22.0079 16.6732 22.4274C16.6732 22.7575 16.5282 23.0216 16.2849 23.2093C16.0389 23.3957 15.701 23.4889 15.2712 23.4889C14.809 23.4889 14.2977 23.353 13.7306 23.0721L13.4238 23.6779C14.0828 24.1142 14.7572 24.333 15.4602 24.333C16.2124 24.333 16.8066 24.1414 17.2532 23.7595C17.6985 23.3789 17.9212 22.8882 17.9212 22.2901L17.929 22.294C17.929 21.6105 17.6506 21.1975 17.0901 20.8104C17.0901 20.8104 17.0305 20.7768 16.936 20.7237Z" fill="#C17803"/>
<path d="M21.2388 7.46848C21.0899 7.46848 20.9877 7.48531 20.8828 7.50991V7.52674H20.9009C20.9708 7.65879 21.0899 7.75588 21.178 7.87369C21.2479 8.00832 21.3074 8.14555 21.3773 8.28019L21.3942 8.26077C21.5159 8.17662 21.5767 8.04198 21.5767 7.83744L21.4731 7.66008L21.2401 7.4646L21.2388 7.46848Z" fill="#105E86"/>
<path d="M30.6753 17.0884C30.4242 16.7583 30.1122 16.4696 29.7756 16.2314C29.4986 16.045 28.8927 15.7861 28.7788 15.4741L28.7619 15.456C28.951 15.4392 29.1762 15.3718 29.3575 15.3213C29.6513 15.2437 29.9206 15.2618 30.2248 15.1867C30.3621 15.153 30.5006 15.1103 30.6378 15.0676V14.9899C30.4824 14.8385 30.3659 14.6313 30.2054 14.4889C29.7652 14.1148 29.2772 13.7497 28.7762 13.4442C28.5043 13.2733 28.16 13.1646 27.8739 13.0196L27.5373 12.8578C27.3819 12.6726 27.2913 12.4267 27.1813 12.2053C26.9327 11.7379 26.6893 11.2201 26.4731 10.7256C26.3178 10.3929 26.2233 10.0627 26.033 9.75593C25.1397 8.31117 24.1726 7.43604 22.6852 6.57902C22.3654 6.40166 21.9822 6.32528 21.577 6.23207C21.3608 6.22172 21.1446 6.20618 20.9297 6.19712C20.7873 6.13757 20.6501 5.97575 20.5284 5.89807C20.0365 5.59384 18.7626 4.93231 18.4001 5.80745C18.1671 6.35894 18.7458 6.90267 18.9477 7.18359C19.0966 7.37778 19.2843 7.60045 19.3879 7.81794C19.4487 7.96682 19.4655 8.11699 19.5264 8.27104C19.6636 8.64518 19.7944 9.06203 19.9756 9.41157C20.0701 9.59022 20.1737 9.77535 20.2954 9.93588C20.3653 10.0304 20.4844 10.0731 20.5116 10.2246C20.3899 10.398 20.3821 10.6492 20.3122 10.8602C20.0015 11.8221 20.1232 13.0118 20.5633 13.7199C20.7019 13.931 21.032 14.3996 21.4734 14.2197C21.8618 14.0682 21.7764 13.584 21.8877 13.1594L21.9498 12.9212V12.9406C22.0715 13.1801 22.1932 13.4067 22.3046 13.6462C22.5712 14.0617 23.0373 14.4941 23.427 14.7841C23.6341 14.9356 23.7985 15.1997 24.0574 15.2942V15.2696H24.038L23.8386 15.1C23.6833 14.9472 23.5085 14.7595 23.3855 14.5925C23.0231 14.1135 22.7033 13.5866 22.4185 13.0442C22.2761 12.7775 22.157 12.4901 22.0431 12.2273L21.9045 11.9179C21.7751 12.103 21.5848 12.2648 21.4903 12.494C21.3259 12.859 21.309 13.3096 21.2469 13.7769L21.2119 13.795C20.9349 13.729 20.8404 13.4481 20.7368 13.2112C20.4779 12.6066 20.4352 11.637 20.6591 10.9418C20.72 10.7644 20.9789 10.2013 20.8753 10.033C20.821 9.87115 20.6501 9.77794 20.5556 9.64718C20.443 9.48925 20.3226 9.28341 20.2449 9.10475C20.0377 8.62964 19.9342 8.10275 19.7089 7.62634C19.6054 7.40626 19.4241 7.17583 19.2765 6.97517C19.1121 6.74602 18.9309 6.5842 18.8001 6.31363L18.7652 5.96539L18.8869 5.85017L19.4332 5.92914C19.7529 6.05731 20.0222 6.17511 20.2902 6.35376C20.4119 6.43791 20.5426 6.59974 20.698 6.64116H20.8792C21.1563 6.70071 21.4683 6.65929 21.7272 6.73437C22.1868 6.87937 22.601 7.09038 22.9726 7.31823C24.1066 8.02507 25.0387 9.02708 25.6718 10.2233C25.7753 10.4188 25.8207 10.5987 25.9152 10.802C26.0964 11.2214 26.3204 11.6434 26.5042 12.0499C26.6854 12.4513 26.8602 12.8578 27.1204 13.1905C27.2499 13.3678 27.7703 13.461 28.0033 13.5529C28.1755 13.6306 28.4435 13.7005 28.5988 13.7924C28.8966 13.9711 29.1866 14.1743 29.4662 14.3698C29.6086 14.4656 30.0397 14.6779 30.0656 14.8501C29.373 14.832 28.8357 14.9006 28.3865 15.0896C28.2571 15.1401 28.0499 15.1401 28.0318 15.3019L28.1742 15.5738C28.2778 15.7434 28.4564 15.9725 28.6221 16.0916C28.8034 16.2314 28.9846 16.3661 29.1749 16.4852C29.5115 16.6884 29.8934 16.8088 30.2235 17.0134C30.4112 17.1325 30.6028 17.2839 30.7931 17.4108C30.8877 17.4742 30.9485 17.5882 31.0702 17.6296V17.6024L30.9343 17.3305L30.6753 17.0884Z" fill="#105E86"/>
<path d="M21.2395 7.46582L21.2369 7.46841C21.088 7.46841 20.9857 7.48524 20.8809 7.50984V7.52667H20.899C20.9689 7.65871 21.088 7.75581 21.176 7.87361C21.2459 8.00825 21.3055 8.14548 21.3754 8.28011L21.3922 8.26069C21.5139 8.17655 21.5748 8.04191 21.5748 7.83737L21.4712 7.66001L21.2395 7.46582Z" fill="#0E5275"/>
<path d="M19.0895 5.36987C18.793 5.36987 18.5367 5.4838 18.4021 5.80615C18.169 6.35764 18.7477 6.90137 18.9497 7.18229C19.0985 7.37648 19.2863 7.59915 19.3898 7.81664C19.4507 7.96551 19.4675 8.11568 19.5283 8.26974C19.6656 8.64387 19.7963 9.06073 19.9776 9.41027C20.0721 9.58892 20.1756 9.77405 20.2973 9.93457C20.3672 10.0291 20.4863 10.0718 20.5135 10.2233C20.3918 10.3967 20.3841 10.6479 20.3142 10.8589C20.0035 11.8208 20.1251 13.0105 20.5653 13.7186C20.6818 13.8973 20.9356 14.2585 21.2773 14.2585C21.3408 14.2585 21.4068 14.2468 21.4754 14.2184C21.8638 14.0669 21.7783 13.5827 21.8897 13.1581L21.9518 12.9199V12.9393C22.0735 13.1788 22.1952 13.4054 22.3065 13.6448C22.5732 14.0604 23.0393 14.4928 23.4289 14.7828C23.6361 14.9343 23.8005 15.1983 24.0594 15.2929V15.2683H24.04L23.8406 15.0987C23.6852 14.9459 23.5105 14.7582 23.3875 14.5912C23.025 14.1122 22.7053 13.5853 22.4204 13.0429C22.278 12.7762 22.1589 12.4888 22.045 12.226L21.9052 11.9179C21.7757 12.103 21.5854 12.2648 21.4909 12.494C21.3265 12.859 21.3097 13.3096 21.2475 13.7769L21.2126 13.795C20.9356 13.729 20.841 13.4481 20.7375 13.2112C20.4786 12.6066 20.4358 11.637 20.6598 10.9418C20.7207 10.7644 20.9796 10.2013 20.876 10.033C20.8216 9.87114 20.6507 9.77793 20.5562 9.64718C20.4436 9.48924 20.3232 9.2834 20.2455 9.10475C20.0384 8.62963 19.9348 8.10274 19.7096 7.62633C19.606 7.40625 19.4248 7.17582 19.2772 6.97516C19.1128 6.74602 18.9315 6.58419 18.8008 6.31362L18.7658 5.96538L18.8875 5.85016L19.4338 5.92913C19.7536 6.0573 20.0229 6.1751 20.2909 6.35376C20.4125 6.4379 20.5433 6.59973 20.6986 6.64115H20.8799C21.1569 6.70071 21.4689 6.65928 21.7278 6.73436C22.1874 6.87936 22.6017 7.09037 22.9732 7.31822C23.381 7.57325 23.7642 7.86583 24.1151 8.19207V7.54089C23.693 7.20041 23.2231 6.88842 22.6858 6.57901C22.3661 6.40166 21.9829 6.32528 21.5777 6.23207C21.3615 6.22171 21.1453 6.20617 20.9304 6.19711C20.788 6.13756 20.6507 5.97574 20.5291 5.89806C20.2196 5.70517 19.597 5.36987 19.0895 5.36987Z" fill="#0E5275"/>
</g>
<defs>
<clipPath id="clip0_60_3620">
<rect width="31.07" height="31.07" fill="white"/>
</clipPath>
</defs>
</svg>
