<svg width="30" height="30" viewBox="0 0 30 30" fill="none" xmlns="http://www.w3.org/2000/svg">
<g clip-path="url(#clip0_60_3609)">
<path d="M27.4401 18.6489C27.4415 18.6489 27.4427 18.6477 27.4427 18.6463C27.4427 18.6448 27.4415 18.6437 27.4401 18.6437C27.4387 18.6437 27.4375 18.6448 27.4375 18.6463C27.4375 18.6477 27.4387 18.6489 27.4401 18.6489Z" fill="black"/>
<path d="M23.7381 18.4088L23.7406 18.4113L23.7369 18.4138C23.5556 18.4801 23.4056 18.5076 23.2794 18.5638C23.1525 18.6135 23.048 18.7077 22.9856 18.8288L22.9844 18.8313C22.9069 18.9751 22.8394 19.2301 22.8594 19.6638C22.9106 19.7013 22.9731 19.7301 23.0369 19.7501L23.0419 19.7513C23.2531 19.8163 23.6069 19.8588 24.0019 19.8526C24.7894 19.8438 25.7594 19.6576 26.2744 19.4151C26.7181 19.2038 27.0981 18.9488 27.4369 18.6463C25.7169 19.0063 24.7456 18.9101 24.1494 18.6613C24.0007 18.5977 23.8622 18.5126 23.7381 18.4088ZM21.9744 5.18881L21.9819 5.20006L21.9906 5.21006L21.9744 5.18881ZM15.3956 24.1238L15.3944 24.0288L15.3931 23.9951L15.3956 24.1238ZM14.0769 18.6076C13.9986 18.5692 13.9146 18.5439 13.8281 18.5326H13.8244V18.5301H13.7981C13.7331 18.5363 13.6381 18.5588 13.4531 18.7651C13.0231 19.2526 12.8731 19.5588 12.5181 19.8451C12.1631 20.1301 11.7031 20.2826 10.7831 20.4738C10.5866 20.5092 10.3955 20.5697 10.2144 20.6538C10.2506 20.6838 10.2469 20.6913 10.3006 20.7201C10.4356 20.7951 10.6081 20.8613 10.7481 20.8976C11.1431 20.9976 11.7931 21.1138 12.4706 20.9976C13.1481 20.8801 13.8531 20.5513 14.4544 19.6976C14.5581 19.5501 14.5694 19.3326 14.4844 19.0988C14.3994 18.8651 14.2094 18.6638 14.0769 18.6076ZM19.1244 1.87756L19.0531 1.89131L19.1269 1.87881L19.1244 1.87756ZM22.6019 8.62506C21.7631 8.63631 21.2931 8.85506 21.0456 9.14131C20.6956 9.54756 20.6631 10.2601 20.8806 11.1376C21.0969 12.0163 21.5431 12.9988 21.9631 13.8151C22.1731 14.2238 22.3769 14.5913 22.5406 14.8901C22.7056 15.1901 22.8269 15.4026 22.9006 15.5838C22.9681 15.7513 23.0444 15.8988 23.1206 16.0363C23.4456 15.3426 23.5031 14.6613 23.4706 13.9513C23.4281 13.0726 23.2256 12.1738 23.2556 11.2638C23.2894 10.2001 23.4969 9.50756 23.5144 8.68506C23.2119 8.64483 22.907 8.62479 22.6019 8.62506ZM22.7569 9.25756L22.7556 9.26756V9.28006C22.7556 9.33756 22.7394 9.39256 22.7106 9.43756L22.7119 9.43631C22.6753 9.50481 22.6295 9.56791 22.5756 9.62381C22.4526 9.76211 22.2866 9.85501 22.1044 9.88756L22.0994 9.88881C21.9195 9.91107 21.7378 9.86465 21.5906 9.75881L21.5931 9.76006C21.5334 9.71932 21.4799 9.67005 21.4344 9.61381L21.4331 9.61256C21.3935 9.56851 21.3667 9.51449 21.3556 9.45631V9.45381L21.3544 9.43506C21.3544 9.38131 21.3744 9.33131 21.4081 9.29381C21.4478 9.24765 21.4962 9.20983 21.5506 9.18256L21.5531 9.18131C21.6719 9.11381 21.8319 9.06381 22.0131 9.03631C22.0786 9.02676 22.1445 9.02133 22.2106 9.02006V9.02381H22.2719C22.3468 9.02525 22.4214 9.03447 22.4944 9.05131C22.5548 9.06355 22.6124 9.08686 22.6644 9.12006C22.6881 9.13572 22.7085 9.15594 22.7244 9.17954C22.7403 9.20315 22.7513 9.22967 22.7569 9.25756ZM8.84563 14.1338C8.84563 13.9088 8.86313 13.6888 8.89563 13.4726L8.89313 13.4963C9.02063 12.5726 9.03813 11.7088 9.02313 11.0263C9.00813 10.3613 8.96063 9.91881 8.96063 9.64256V9.61256L8.95938 9.60506V9.59756C8.95938 8.11756 9.21938 6.69881 9.69063 5.38256C10.0369 4.45256 10.5519 3.50881 11.3231 2.74381C10.5644 2.49131 9.21938 2.10631 7.76188 2.03381C7.60618 2.02558 7.45029 2.02141 7.29438 2.02131L7.29313 2.02256C7.13688 2.02256 6.97938 2.02756 6.82438 2.03631C5.57688 2.10881 4.39688 2.47506 3.55438 3.38006C2.70938 4.28506 2.15313 5.76881 2.27438 8.22506C2.29813 8.69006 2.49813 9.99256 2.84063 11.5401C3.18438 13.0876 3.66813 14.9088 4.25063 16.5176C4.83438 18.1263 5.54188 19.5263 6.21438 20.1888C6.55313 20.5201 6.84688 20.6538 7.11313 20.6426C7.38063 20.6301 7.70313 20.4738 8.09688 19.9951C8.82249 19.1091 9.57621 18.2466 10.3569 17.4088L10.3319 17.4351C9.86359 17.0222 9.48878 16.5141 9.23248 15.9448C8.97619 15.3755 8.8443 14.7581 8.84563 14.1338Z" fill="#32648D"/>
<path d="M15.4938 1.96002V1.95752C14.0338 1.96127 12.9875 2.40752 12.1925 3.07627C11.3738 3.76752 10.825 4.71377 10.4637 5.68252C10.035 6.83252 9.88875 7.94502 9.83 8.70002L9.84625 8.69002C10.2875 8.44002 10.8662 8.19002 11.4862 8.04502C12.1062 7.90002 12.7738 7.85627 13.3788 8.09377C13.9838 8.33127 14.4837 8.89002 14.665 9.73752C15.5338 13.8088 14.395 15.3225 13.975 16.465C13.8224 16.8512 13.6925 17.2461 13.5863 17.6475L13.5663 17.7313C13.6188 17.7188 13.6725 17.7038 13.725 17.6988C14.0213 17.6738 14.2538 17.7738 14.3913 17.8338C14.8138 18.0113 15.1037 18.3838 15.26 18.8088C15.3012 18.92 15.33 19.04 15.3475 19.1638C15.3638 19.2063 15.3725 19.2563 15.3725 19.3075V19.3225C15.3234 20.891 15.3293 22.4607 15.39 24.0288C15.4187 24.6863 15.46 25.2688 15.5113 25.7275C15.565 26.195 15.64 26.5488 15.6875 26.6688C15.845 27.0688 16.0763 27.5925 16.4938 27.9488C16.9113 28.3038 17.51 28.5413 18.6038 28.3038C19.5525 28.0975 20.1375 27.8113 20.5287 27.4C20.92 26.9888 21.1525 26.4163 21.3013 25.54C21.525 24.2275 21.9738 20.4213 22.0288 19.705C22.0038 19.165 22.0825 18.75 22.2538 18.4338C22.4288 18.1088 22.7013 17.91 22.935 17.8025C23.0525 17.7488 23.1625 17.7125 23.2525 17.6863C23.1535 17.5428 23.0497 17.4027 22.9412 17.2663L22.9525 17.28C22.6214 16.8744 22.3491 16.4241 22.1437 15.9425L22.13 15.9063C22.0235 15.6846 21.9089 15.4669 21.7863 15.2538L21.8125 15.3025C21.6488 15.0025 21.4412 14.6275 21.2237 14.2063C20.7887 13.3625 20.3162 12.34 20.07 11.3438C19.825 10.3488 19.79 9.31877 20.4175 8.59252C20.9725 7.94752 21.9488 7.68002 23.4125 7.83002C23.37 7.69877 23.3438 7.59002 23.27 7.41502C22.9372 6.6234 22.5023 5.87874 21.9763 5.20002C20.735 3.59752 18.7287 2.01127 15.6312 1.96002H15.4938ZM9.8125 9.71252L9.815 9.71127L9.81875 9.70752L9.8125 9.71252Z" fill="#32648D"/>
<path d="M11.6504 8.86631L11.6629 8.86506L11.6729 8.86131L11.6504 8.86631ZM13.1992 16.1713C13.7004 14.8038 14.6867 13.8063 13.8567 9.91381C13.7204 9.27631 13.4517 9.01881 13.0817 8.87381C12.8868 8.80364 12.6812 8.7681 12.4742 8.76881H12.4317H12.4342C12.1742 8.77132 11.9155 8.80361 11.6629 8.86506C11.1677 8.98814 10.691 9.17646 10.2454 9.42506C10.0842 9.51381 9.94541 9.60631 9.81541 9.71006L9.79166 9.73256C9.79916 9.91506 9.83416 10.3576 9.84916 11.0088C9.87163 11.8794 9.82523 12.7505 9.71041 13.6138C9.41541 15.7513 10.9479 17.5213 12.7479 17.5238C12.8542 17.0851 13.0267 16.6401 13.1992 16.1713ZM12.1354 9.96006C12.0775 9.90043 12.0286 9.83262 11.9904 9.75881L11.9879 9.75381C11.9473 9.68715 11.9301 9.60884 11.9392 9.53131C11.9579 9.39631 12.0679 9.32756 12.1742 9.28881C12.297 9.24868 12.4263 9.23172 12.5554 9.23881L12.5542 9.23381C12.6192 9.23381 12.6892 9.24006 12.7592 9.25006C12.9479 9.27631 13.1167 9.32756 13.2442 9.40256C13.3061 9.43573 13.3612 9.48025 13.4067 9.53381L13.4079 9.53506C13.4504 9.58381 13.4754 9.64756 13.4754 9.71881L13.4742 9.74881C13.462 9.82039 13.43 9.88586 13.3817 9.94006C13.3316 10.0017 13.2731 10.056 13.2079 10.1013L13.2054 10.1026C13.0451 10.2194 12.8458 10.27 12.6492 10.2438H12.6529C12.4533 10.2106 12.2708 10.1105 12.1354 9.96006Z" fill="#32648D"/>
<path d="M10.2227 9.43748L10.2477 9.42498L10.2514 9.42248L10.2227 9.43748ZM22.6452 4.68998C23.2008 5.40472 23.6617 6.18829 24.0164 7.02123L24.0427 7.08998C24.1789 7.41998 24.2702 7.69873 24.3214 7.91498C24.3477 8.02373 24.3652 8.11498 24.3714 8.20998C24.3764 8.2704 24.3713 8.33122 24.3564 8.38998C24.3564 8.39373 24.3502 8.40248 24.3489 8.40623C24.3864 9.50123 24.1177 10.2437 24.0864 11.2887C24.0614 12.0462 24.2527 12.9362 24.3002 13.9075C24.3452 14.82 24.2364 15.8225 23.6502 16.8062C23.7002 16.8662 23.7439 16.9262 23.7914 16.9862C25.3402 14.5175 26.4564 11.7862 27.0514 9.45748C27.3702 8.20373 27.5389 7.06748 27.5539 6.16748C27.5664 5.26748 27.4002 4.61498 27.1902 4.34248C25.5327 2.19748 23.2914 1.65123 21.4114 1.63623L21.2314 1.63748C20.5247 1.6483 19.8209 1.72912 19.1302 1.87873C20.6652 2.56873 21.8277 3.63123 22.6452 4.68998Z" fill="#32648D"/>
<path d="M15.7014 0.3225H15.6889C14.2339 0.2975 12.9852 0.655 11.9764 1.25C10.9839 0.90125 8.92519 0.3 6.75394 0.42C5.24269 0.50375 3.59269 0.96875 2.37019 2.275C1.15144 3.58125 0.507687 5.6025 0.642687 8.3525C0.680187 9.11125 0.893937 10.3488 1.24769 11.9513C1.60269 13.5538 2.10019 15.43 2.72144 17.1413C3.34269 18.8538 4.02269 20.3913 5.08644 21.4363C5.61769 21.96 6.34894 22.4 7.21019 22.3638C7.81519 22.3388 8.36144 22.07 8.83394 21.6738C9.06394 21.98 9.30894 22.1138 9.53269 22.2375C9.81394 22.3938 10.0877 22.5 10.3714 22.57C10.8814 22.6987 11.7539 22.8713 12.7764 22.695C13.1492 22.6285 13.5121 22.5151 13.8564 22.3575C13.8702 22.77 13.8864 23.1737 13.9014 23.5825C13.9527 24.8775 13.9839 26.0737 14.3677 27.1225C14.4289 27.2938 14.5989 28.1762 15.2652 28.955C15.9314 29.735 17.2389 30.2213 18.7264 29.8988C19.7764 29.6713 21.1102 29.2612 21.9977 27.9837C22.8739 26.7212 23.2689 24.91 23.3477 21.9725C23.3677 21.8137 23.3914 21.6788 23.4152 21.5525L23.6239 21.5713H23.6489C24.7689 21.6225 25.9839 21.4613 26.9989 20.9838C27.8977 20.5625 28.5777 20.1362 29.0739 19.38C29.1977 19.1925 29.3327 18.9662 29.3702 18.5763C29.4077 18.1863 29.1864 17.5763 28.8189 17.295C28.0839 16.73 27.6227 16.945 27.1277 17.0487C26.6438 17.1588 26.1501 17.2199 25.6539 17.2313H25.6439C27.0714 14.7975 28.0952 12.2125 28.6789 9.925C29.0252 8.575 29.2189 7.33 29.2339 6.24125C29.2502 5.1525 29.1627 4.18875 28.5177 3.355C26.5039 0.75 23.6727 0.03 21.4814 0.005C21.4139 0.00375 21.3452 0.0025 21.2777 0.00375V0C20.1173 0.00957234 18.964 0.181662 17.8514 0.51125L17.8002 0.52875C17.1074 0.403057 16.4055 0.334079 15.7014 0.3225ZM18.6627 1.11875C19.4982 0.918475 20.3536 0.813225 21.2127 0.805H21.2202L21.2214 0.8C23.2939 0.78 25.9402 1.36875 27.8414 3.8275C28.2689 4.38 28.3964 5.1875 28.3814 6.1825C28.3652 7.17625 28.1839 8.36625 27.8514 9.67C27.2064 12.195 25.9889 15.1388 24.2739 17.78C24.3324 17.8225 24.3958 17.8578 24.4627 17.885L24.4689 17.8875C24.8264 18.0375 25.6427 18.1663 27.2714 17.8275C27.6814 17.74 27.9814 17.6812 28.2927 17.9212C28.3643 17.9825 28.4218 18.0586 28.4611 18.1443C28.5003 18.23 28.5205 18.3232 28.5202 18.4175L28.5189 18.455V18.4537C28.5022 18.6053 28.4467 18.75 28.3577 18.8738C28.0427 19.3525 27.4214 19.8062 26.6264 20.18C25.9214 20.5125 24.9102 20.6862 24.0139 20.6962C23.5639 20.7012 23.1502 20.6663 22.7977 20.555L22.7752 20.5462C22.6389 21.8713 22.3264 24.4875 22.1227 25.6812C21.9602 26.6437 21.6752 27.4088 21.1302 27.9813C20.5864 28.5538 19.8177 28.8988 18.7827 29.1237C17.5014 29.4025 16.5664 29.1025 15.9639 28.5888C15.3627 28.0763 15.0877 27.3962 14.9214 26.98C14.8077 26.6925 14.7489 26.32 14.6914 25.8225C14.6339 25.325 14.5927 24.7163 14.5639 24.03C14.5349 23.2499 14.5207 22.4694 14.5214 21.6887C14.5214 21.4175 14.5239 21.1475 14.5264 20.8763C13.9995 21.3674 13.3419 21.696 12.6327 21.8225L12.6102 21.8263C11.7589 21.9725 11.0002 21.8288 10.5464 21.7138C10.3203 21.6566 10.1023 21.5709 9.89769 21.4587C9.69019 21.3463 9.49269 21.2175 9.36019 20.9663C9.28173 20.8202 9.25738 20.651 9.29144 20.4888C9.33337 20.3265 9.42734 20.1825 9.55894 20.0788L9.56019 20.0775C9.80519 19.8763 10.1277 19.7638 10.6164 19.6613C11.5039 19.4762 11.8139 19.35 12.0027 19.1987C12.1627 19.0688 12.3452 18.8063 12.6652 18.4213L12.6614 18.3738V18.37C12.0788 18.3544 11.5087 18.1974 11.0002 17.9125L11.0189 17.9225C10.8339 18.12 9.88769 19.1325 8.73519 20.5375C8.25019 21.125 7.71394 21.4625 7.14894 21.4862C6.58394 21.51 6.07269 21.2225 5.63769 20.7962C4.76894 19.9425 4.07644 18.4738 3.47269 16.8138C2.87019 15.1538 2.38019 13.305 2.03144 11.73C1.68144 10.155 1.47644 8.885 1.44644 8.2725C1.31644 5.67 1.91769 3.91625 2.94894 2.81C3.98144 1.70375 5.39644 1.285 6.77519 1.205C9.25144 1.06125 11.6014 1.935 12.0777 2.1225C12.9952 1.4925 14.1764 1.1 15.6502 1.125C16.3719 1.13507 17.0899 1.23116 17.7889 1.41125L17.7264 1.3975L17.7514 1.38625C17.9902 1.29625 18.2952 1.205 18.6077 1.13L18.6627 1.11875Z" fill="black"/>
</g>
<defs>
<clipPath id="clip0_60_3609">
<rect width="30" height="30" fill="white"/>
</clipPath>
</defs>
</svg>
