<svg width="32" height="32" viewBox="0 0 32 32" fill="none" xmlns="http://www.w3.org/2000/svg">
<g clip-path="url(#clip0_60_3441)">
<path d="M15.402 0.00878906C7.53423 0.00878906 8.02548 3.43441 8.02548 3.43441L8.03422 6.98346H15.5423V8.04897H5.05214C5.05214 8.04897 0.0175781 7.4757 0.0175781 15.4461C0.0175781 23.4167 4.41187 23.134 4.41187 23.134H7.03437V19.4353C7.03437 19.4353 6.89299 15.0234 11.3585 15.0234H18.8051C18.8051 15.0234 22.9889 15.0913 22.9889 10.9637V4.13903C22.9889 4.13903 23.6243 0.00878906 15.402 0.00878906ZM11.262 2.39545C11.4395 2.39529 11.6152 2.43026 11.7791 2.49835C11.9431 2.56645 12.092 2.66633 12.2175 2.79229C12.3429 2.91825 12.4424 3.06781 12.5102 3.23241C12.5781 3.39702 12.6129 3.57343 12.6127 3.75157C12.6129 3.9297 12.5781 4.10611 12.5102 4.27072C12.4424 4.43532 12.3429 4.58488 12.2175 4.71084C12.092 4.8368 11.9431 4.93668 11.7791 5.00478C11.6152 5.07287 11.4395 5.10784 11.262 5.10768C11.0846 5.10784 10.9089 5.07287 10.745 5.00478C10.581 4.93668 10.4321 4.8368 10.3066 4.71084C10.1811 4.58488 10.0817 4.43532 10.0138 4.27072C9.94602 4.10611 9.91119 3.9297 9.91135 3.75157C9.91119 3.57343 9.94602 3.39702 10.0138 3.23241C10.0817 3.06781 10.1811 2.91825 10.3066 2.79229C10.4321 2.66633 10.581 2.56645 10.745 2.49835C10.9089 2.43026 11.0846 2.39529 11.262 2.39545Z" fill="url(#paint0_linear_60_3441)"/>
<path d="M15.6258 30.9635C23.4935 30.9635 23.0023 27.5379 23.0023 27.5379L22.9935 23.9889H15.4854V22.9234H25.9755C25.9755 22.9234 31.01 23.4967 31.01 15.5261C31.01 7.5556 26.6157 7.83828 26.6157 7.83828H23.9932V11.5368C23.9932 11.5368 24.1346 15.9488 19.6691 15.9488H12.2225C12.2225 15.9488 8.03873 15.8809 8.03873 20.0086V26.8334C8.03873 26.8334 7.40343 30.9635 15.6256 30.9635H15.6258ZM19.7657 28.5771C19.5883 28.5772 19.4126 28.5423 19.2486 28.4742C19.0847 28.4061 18.9357 28.3062 18.8103 28.1802C18.6848 28.0543 18.5853 27.9047 18.5175 27.7401C18.4497 27.5755 18.4148 27.3991 18.415 27.221C18.4148 27.0428 18.4496 26.8664 18.5175 26.7018C18.5853 26.5372 18.6848 26.3876 18.8102 26.2616C18.9357 26.1356 19.0846 26.0357 19.2486 25.9676C19.4125 25.8995 19.5883 25.8646 19.7657 25.8647C19.9431 25.8646 20.1188 25.8995 20.2828 25.9676C20.4467 26.0357 20.5957 26.1356 20.7211 26.2616C20.8466 26.3875 20.9461 26.5371 21.0139 26.7017C21.0817 26.8663 21.1165 27.0427 21.1164 27.2208C21.1165 27.399 21.0817 27.5754 21.0139 27.74C20.9461 27.9046 20.8466 28.0542 20.7211 28.1801C20.5957 28.3061 20.4467 28.406 20.2828 28.474C20.1188 28.5421 19.9431 28.5772 19.7657 28.5771Z" fill="url(#paint1_linear_60_3441)"/>
</g>
<defs>
<linearGradient id="paint0_linear_60_3441" x1="297.85" y1="278.428" x2="1839.82" y2="1798.91" gradientUnits="userSpaceOnUse">
<stop stop-color="#387EB8"/>
<stop offset="1" stop-color="#366994"/>
</linearGradient>
<linearGradient id="paint1_linear_60_3441" x1="447.64" y1="483.756" x2="2103.23" y2="2042.58" gradientUnits="userSpaceOnUse">
<stop stop-color="#FFE052"/>
<stop offset="1" stop-color="#FFC331"/>
</linearGradient>
<clipPath id="clip0_60_3441">
<rect width="31.07" height="31.07" fill="white"/>
</clipPath>
</defs>
</svg>
