<svg width="32" height="32" viewBox="0 0 32 32" fill="none" xmlns="http://www.w3.org/2000/svg">
<g clip-path="url(#clip0_60_3423)">
<path d="M15.5325 18.2999C17.0605 18.2999 18.2993 17.0611 18.2993 15.5331C18.2993 14.005 17.0605 12.7662 15.5325 12.7662C14.0044 12.7662 12.7656 14.005 12.7656 15.5331C12.7656 17.0611 14.0044 18.2999 15.5325 18.2999Z" fill="#61DAFB"/>
<path d="M26.0422 10.9703C25.5083 10.7761 24.9501 10.5819 24.3676 10.4121C24.5132 9.82956 24.6345 9.24707 24.7316 8.68885C25.2413 5.48515 24.6831 3.228 23.1298 2.35427C22.6686 2.08729 22.159 1.96594 21.5765 1.96594C19.8775 1.96594 17.7175 3.228 15.5331 5.33953C13.3488 3.228 11.1887 1.96594 9.48979 1.96594C8.9073 1.96594 8.39762 2.08729 7.93649 2.35427C6.38318 3.25227 5.82496 5.50942 6.33464 8.68885C6.43172 9.24707 6.55307 9.82956 6.6987 10.4121C6.1162 10.5819 5.55799 10.7518 5.02404 10.9703C1.99023 12.1353 0.339844 13.7371 0.339844 15.5331C0.339844 17.3291 2.0145 18.931 5.02404 20.096C5.55799 20.2901 6.1162 20.4843 6.6987 20.6542C6.55307 21.2367 6.43172 21.8191 6.33464 22.3774C5.82496 25.5811 6.38318 27.8382 7.93649 28.712C8.39762 28.9789 8.9073 29.1003 9.48979 29.1003C11.213 29.1003 13.3731 27.8382 15.5331 25.7267C17.7175 27.8382 19.8775 29.1003 21.5765 29.1003C22.159 29.1003 22.6686 28.9789 23.1298 28.712C24.6831 27.8139 25.2413 25.5568 24.7316 22.3774C24.6345 21.8191 24.5132 21.2367 24.3676 20.6542C24.9501 20.4843 25.5083 20.3144 26.0422 20.096C29.076 18.931 30.7264 17.3291 30.7264 15.5331C30.7264 13.7371 29.076 12.1353 26.0422 10.9703ZM22.4502 3.56779C23.4453 4.15028 23.7851 5.94629 23.3725 8.49469C23.2997 9.00437 23.1783 9.53831 23.0327 10.0965C21.7706 9.80529 20.4358 9.61113 19.0281 9.48977C18.2029 8.32479 17.3534 7.28117 16.5039 6.33462C18.3 4.56288 20.1202 3.34936 21.6007 3.34936C21.9163 3.34936 22.2075 3.42217 22.4502 3.56779ZM19.7319 17.9602C19.295 18.7368 18.7854 19.5135 18.2514 20.2901C17.3534 20.3629 16.4554 20.3872 15.5331 20.3872C14.5866 20.3872 13.6886 20.3629 12.8148 20.2901C12.2809 19.5135 11.7955 18.7368 11.3586 17.9602C10.8975 17.1592 10.4606 16.334 10.0723 15.5331C10.4606 14.7322 10.8975 13.907 11.3586 13.1061C11.7955 12.3294 12.3052 11.5528 12.8391 10.7761C13.7371 10.7033 14.6351 10.679 15.5574 10.679C16.5039 10.679 17.402 10.7033 18.2757 10.7761C18.8096 11.5528 19.295 12.3294 19.7319 13.1061C20.1931 13.907 20.6299 14.7322 21.0182 15.5331C20.6056 16.334 20.1931 17.135 19.7319 17.9602ZM21.7464 17.1592C22.1104 18.0087 22.4017 18.8339 22.6686 19.6591C21.8434 19.8532 20.9697 19.9989 20.0474 20.1202C20.3387 19.6591 20.6542 19.1737 20.9212 18.664C21.2124 18.1543 21.4794 17.6446 21.7464 17.1592ZM15.5331 23.7365C14.9506 23.1055 14.3924 22.4259 13.8585 21.7221C14.4167 21.7463 14.9749 21.7706 15.5331 21.7706C16.0913 21.7706 16.6496 21.7463 17.2078 21.7221C16.6738 22.4259 16.1156 23.1055 15.5331 23.7365ZM11.0188 20.096C10.0966 19.9746 9.22282 19.829 8.39762 19.6348C8.6646 18.8339 8.95584 17.9844 9.3199 17.135C9.58687 17.6204 9.85385 18.13 10.1451 18.6155C10.4363 19.1494 10.7276 19.6105 11.0188 20.096ZM9.3199 13.907C8.95584 13.0575 8.6646 12.2323 8.39762 11.4071C9.22282 11.213 10.0966 11.0674 11.0188 10.946C10.7276 11.4071 10.4121 11.8925 10.1451 12.4022C9.85385 12.9119 9.58687 13.4216 9.3199 13.907ZM15.5331 7.32971C16.1156 7.96074 16.6738 8.64031 17.2078 9.34415C16.6496 9.31988 16.0913 9.29561 15.5331 9.29561C14.9749 9.29561 14.4167 9.31988 13.8585 9.34415C14.3924 8.64031 14.9506 7.96074 15.5331 7.32971ZM20.9212 12.4265L20.0474 10.9703C20.9697 11.0916 21.8434 11.2372 22.6686 11.4314C22.4017 12.2323 22.1104 13.0818 21.7464 13.9313C21.4794 13.4216 21.2124 12.9119 20.9212 12.4265ZM7.69378 8.49469C7.28119 5.94629 7.62097 4.15028 8.61606 3.56779C8.85876 3.42217 9.15001 3.34936 9.46552 3.34936C10.9217 3.34936 12.742 4.53861 14.5623 6.33462C13.7128 7.2569 12.8634 8.32479 12.0382 9.48977C10.6305 9.61113 9.29563 9.82956 8.03357 10.0965C7.88795 9.53831 7.79086 9.00437 7.69378 8.49469ZM1.69899 15.5331C1.69899 14.3924 3.0824 13.1789 5.50944 12.2809C5.99485 12.0867 6.5288 11.9168 7.06275 11.7712C7.45108 12.9847 7.93649 14.271 8.51898 15.5574C7.93649 16.8437 7.42681 18.1058 7.06275 19.3193C3.71343 18.3485 1.69899 16.8923 1.69899 15.5331ZM8.61606 27.4984C7.62097 26.9159 7.28119 25.1199 7.69378 22.5715C7.76659 22.0619 7.88795 21.5279 8.03357 20.9697C9.29563 21.2609 10.6305 21.4551 12.0382 21.5764C12.8634 22.7414 13.7128 23.7851 14.5623 24.7316C12.7663 26.5033 10.946 27.7169 9.46552 27.7169C9.15001 27.7169 8.85876 27.6441 8.61606 27.4984ZM23.3725 22.5715C23.7851 25.1199 23.4453 26.9159 22.4502 27.4984C22.2075 27.6441 21.9163 27.7169 21.6007 27.7169C20.1445 27.7169 18.3242 26.5276 16.5039 24.7316C17.3534 23.8093 18.2029 22.7414 19.0281 21.5764C20.4358 21.4551 21.7706 21.2367 23.0327 20.9697C23.1783 21.5279 23.2754 22.0619 23.3725 22.5715ZM25.5568 18.7853C25.0714 18.9795 24.5375 19.1494 24.0035 19.295C23.6152 18.0815 23.1298 16.7952 22.5473 15.5088C23.1298 14.2225 23.6395 12.9604 24.0035 11.7469C27.3528 12.7177 29.3673 14.174 29.3673 15.5331C29.3673 16.6738 27.9596 17.8873 25.5568 18.7853Z" fill="#61DAFB"/>
</g>
<defs>
<clipPath id="clip0_60_3423">
<rect width="31.0661" height="31.0661" fill="white"/>
</clipPath>
</defs>
</svg>
