<svg width="30" height="32" viewBox="0 0 30 32" fill="none" xmlns="http://www.w3.org/2000/svg">
<path d="M26.1529 21.2183C22.9569 25.4756 16.1327 24.0388 11.7563 24.2446C11.7563 24.2446 10.9809 24.2886 10.2017 24.4168C10.2017 24.4168 10.4968 24.2912 10.8735 24.1605C13.9464 23.0978 15.3988 22.8842 17.2666 21.925C20.7745 20.1284 24.2669 16.2127 24.9775 12.1457C23.6417 16.0574 19.5798 19.4242 15.8816 20.7911C13.351 21.7257 8.77264 22.6344 8.77135 22.6344C8.70915 22.6025 8.64744 22.5697 8.58625 22.536C5.47316 21.0215 5.38255 14.2776 11.0379 12.1042C13.518 11.1515 15.8881 11.6745 18.5688 11.0363C21.4269 10.3568 24.7381 8.21449 26.083 5.41336C27.591 9.88947 29.4031 16.8897 26.1529 21.2183ZM26.2072 4.02833C25.8457 4.89527 25.3829 5.71644 24.8287 6.47479C23.6238 5.23298 22.1818 4.24581 20.5882 3.57186C18.9945 2.8979 17.2818 2.55088 15.5515 2.55139C8.40244 2.55139 2.58789 8.36594 2.58789 15.5137C2.58706 17.2967 2.9552 19.0606 3.66918 20.6943C4.38315 22.3281 5.42749 23.7965 6.73652 25.007L7.02129 25.2582C6.81372 25.0502 6.69722 24.7684 6.6974 24.4746C6.69759 24.1808 6.81444 23.8991 7.02226 23.6915C7.23008 23.4838 7.51187 23.3672 7.80566 23.3673C8.09944 23.3673 8.38118 23.4841 8.58892 23.6918C8.79666 23.8996 8.91339 24.1813 8.91345 24.4751C8.91351 24.7689 8.7969 25.0507 8.58924 25.2585C8.38159 25.4663 8.0999 25.5832 7.80611 25.5833C7.51233 25.5835 7.23049 25.467 7.02258 25.2594L7.21545 25.4303C9.54594 27.4006 12.4998 28.4803 15.5515 28.4774C22.3835 28.4774 27.9948 23.1599 28.475 16.4496C28.8297 13.1631 27.8589 8.98985 26.2072 4.02833Z" fill="#34A853"/>
</svg>
