<svg width="31" height="32" viewBox="0 0 31 32" fill="none" xmlns="http://www.w3.org/2000/svg">
<g clip-path="url(#clip0_60_3427)">
<path d="M30.8486 4.58656L16.3103 30.5836C16.0101 31.1203 15.2389 31.1235 14.9343 30.5894L0.107697 4.58897C-0.22428 4.00698 0.273444 3.30193 0.933047 3.41992L15.487 6.02122C15.5798 6.03781 15.6749 6.03764 15.7677 6.02073L30.0172 3.42355C30.6747 3.30374 31.1747 4.00336 30.8486 4.58656Z" fill="url(#paint0_linear_60_3427)"/>
<path d="M22.4193 0.00762946L11.6606 2.1158C11.5746 2.13264 11.4967 2.17757 11.4391 2.24353C11.3814 2.30948 11.3473 2.39273 11.3422 2.48017L10.6804 13.6576C10.6767 13.7189 10.6874 13.7802 10.7116 13.8367C10.7358 13.8931 10.7728 13.9432 10.8197 13.9828C10.8667 14.0224 10.9222 14.0506 10.9818 14.065C11.0415 14.0795 11.1038 14.0798 11.1636 14.066L14.159 13.3747C14.4392 13.3101 14.6925 13.5569 14.6349 13.8387L13.7449 18.1966C13.6851 18.4899 13.9604 18.7407 14.2468 18.6536L16.097 18.0916C16.3837 18.0045 16.6594 18.256 16.5987 18.5495L15.1844 25.3947C15.0959 25.8229 15.6655 26.0564 15.9029 25.6893L16.0617 25.4442L24.8285 7.94825C24.9754 7.65532 24.7221 7.32129 24.4005 7.38343L21.3171 7.97847C21.0274 8.03433 20.7809 7.76449 20.8626 7.48111L22.8751 0.50487C22.9569 0.220767 22.7093 -0.0491912 22.4193 0.00762946Z" fill="url(#paint1_linear_60_3427)"/>
</g>
<defs>
<linearGradient id="paint0_linear_60_3427" x1="5.64042e-05" y1="3.8838" x2="15.5351" y2="31.07" gradientUnits="userSpaceOnUse">
<stop stop-color="#41D1FF"/>
<stop offset="0.59126" stop-color="#A454FE"/>
<stop offset="1" stop-color="#BD34FE"/>
</linearGradient>
<linearGradient id="paint1_linear_60_3427" x1="626.253" y1="58.0038" x2="948.81" y2="2270.67" gradientUnits="userSpaceOnUse">
<stop stop-color="#FFEA83"/>
<stop offset="0.08333" stop-color="#FFDD35"/>
<stop offset="1" stop-color="#FFA800"/>
</linearGradient>
<clipPath id="clip0_60_3427">
<rect width="30.9535" height="31.07" fill="white"/>
</clipPath>
</defs>
</svg>
