<svg width="37" height="37" viewBox="0 0 37 37" fill="none" xmlns="http://www.w3.org/2000/svg">
<rect width="36.011" height="36.011" rx="6.17332" fill="#282828"/>
<path fill-rule="evenodd" clip-rule="evenodd" d="M18.2234 9.26001C18.0656 9.26001 17.9143 9.3227 17.8027 9.43429C17.6911 9.54587 17.6284 9.69722 17.6284 9.85503V18.5605L16.2956 17.0048C16.2447 16.9454 16.1827 16.8966 16.113 16.8612C16.0433 16.8258 15.9673 16.8044 15.8894 16.7984C15.8114 16.7924 15.733 16.8017 15.6587 16.826C15.5844 16.8502 15.5156 16.8889 15.4562 16.9397C15.3968 16.9906 15.348 17.0526 15.3126 17.1223C15.2772 17.192 15.2559 17.268 15.2498 17.3459C15.2438 17.4239 15.2532 17.5022 15.2774 17.5766C15.3016 17.6509 15.3403 17.7197 15.3911 17.7791L17.7712 20.5558C17.8271 20.6212 17.8964 20.6736 17.9745 20.7096C18.0525 20.7455 18.1375 20.7641 18.2234 20.7641C18.3094 20.7641 18.3943 20.7455 18.4724 20.7096C18.5504 20.6736 18.6198 20.6212 18.6756 20.5558L21.0557 17.7791C21.1066 17.7197 21.1452 17.6509 21.1694 17.5766C21.1937 17.5022 21.2031 17.4239 21.197 17.3459C21.191 17.268 21.1697 17.192 21.1342 17.1223C21.0988 17.0526 21.05 16.9906 20.9907 16.9397C20.9313 16.8889 20.8625 16.8502 20.7881 16.826C20.7138 16.8017 20.6354 16.7924 20.5575 16.7984C20.4796 16.8044 20.4036 16.8258 20.3339 16.8612C20.2642 16.8966 20.2021 16.9454 20.1513 17.0048L18.8184 18.5597V9.85503C18.8184 9.69722 18.7558 9.54587 18.6442 9.43429C18.5326 9.3227 18.3812 9.26001 18.2234 9.26001Z" fill="#CCCCCC"/>
<path d="M20.0077 15.4086V15.7085C20.3785 15.5767 20.7824 15.5711 21.1567 15.6928C21.531 15.8144 21.8545 16.0563 22.077 16.3809C22.2995 16.7055 22.4084 17.0945 22.3869 17.4874C22.3653 17.8804 22.2144 18.2551 21.9578 18.5534L19.5777 21.3302C19.4101 21.5256 19.2022 21.6825 18.9684 21.79C18.7345 21.8976 18.4801 21.9532 18.2226 21.9532C17.9652 21.9532 17.7108 21.8976 17.4769 21.79C17.243 21.6825 17.0352 21.5256 16.8676 21.3302L14.4875 18.5534C14.2316 18.255 14.0813 17.8804 14.0601 17.4877C14.0389 17.0951 14.1479 16.7065 14.3702 16.3822C14.5925 16.0579 14.9156 15.816 15.2895 15.6942C15.6633 15.5724 16.0669 15.5774 16.4376 15.7085V15.4086H15.0492C12.8056 15.4086 11.683 15.4086 10.9864 16.1059C10.2891 16.8025 10.2891 17.9251 10.2891 20.1687V20.9621C10.2891 23.2057 10.2891 24.3283 10.9864 25.0249C11.683 25.7222 12.8056 25.7222 15.0492 25.7222H21.3961C23.6397 25.7222 24.7623 25.7222 25.4589 25.0249C26.1562 24.3283 26.1562 23.2057 26.1562 20.9621V20.1687C26.1562 17.9251 26.1562 16.8025 25.4589 16.1059C24.7623 15.4086 23.6397 15.4086 21.3961 15.4086H20.0077Z" fill="#CCCCCC"/>
</svg>
